<mxfile host="app.diagrams.net" agent="Mozilla/5.0 (Windows NT 10.0; Win64; x64) AppleWebKit/537.36 (KHTML, like Gecko) Chrome/135.0.0.0 Safari/537.36" version="27.0.1" pages="4">
  <diagram name="Page-1" id="f5oIyjSyVtqlGqUXabTn">
    <mxGraphModel dx="2317" dy="661" grid="1" gridSize="10" guides="1" tooltips="1" connect="1" arrows="1" fold="1" page="1" pageScale="1" pageWidth="850" pageHeight="1100" math="0" shadow="0">
      <root>
        <mxCell id="0" />
        <mxCell id="1" parent="0" />
        <mxCell id="SGOqDGirDXT0O3qRioqo-2" style="edgeStyle=orthogonalEdgeStyle;rounded=0;orthogonalLoop=1;jettySize=auto;html=1;exitX=1;exitY=0.5;exitDx=0;exitDy=0;" edge="1" parent="1" source="SGOqDGirDXT0O3qRioqo-1">
          <mxGeometry relative="1" as="geometry">
            <mxPoint x="470.04761904761904" y="120" as="targetPoint" />
          </mxGeometry>
        </mxCell>
        <mxCell id="SGOqDGirDXT0O3qRioqo-12" style="edgeStyle=orthogonalEdgeStyle;rounded=0;orthogonalLoop=1;jettySize=auto;html=1;" edge="1" parent="1" source="SGOqDGirDXT0O3qRioqo-1" target="SGOqDGirDXT0O3qRioqo-6">
          <mxGeometry relative="1" as="geometry" />
        </mxCell>
        <mxCell id="SGOqDGirDXT0O3qRioqo-13" style="edgeStyle=orthogonalEdgeStyle;rounded=0;orthogonalLoop=1;jettySize=auto;html=1;entryX=0.5;entryY=0;entryDx=0;entryDy=0;" edge="1" parent="1" source="SGOqDGirDXT0O3qRioqo-1" target="SGOqDGirDXT0O3qRioqo-8">
          <mxGeometry relative="1" as="geometry" />
        </mxCell>
        <mxCell id="SGOqDGirDXT0O3qRioqo-14" style="edgeStyle=orthogonalEdgeStyle;rounded=0;orthogonalLoop=1;jettySize=auto;html=1;" edge="1" parent="1" source="SGOqDGirDXT0O3qRioqo-1" target="SGOqDGirDXT0O3qRioqo-10">
          <mxGeometry relative="1" as="geometry" />
        </mxCell>
        <mxCell id="SGOqDGirDXT0O3qRioqo-15" style="edgeStyle=orthogonalEdgeStyle;rounded=0;orthogonalLoop=1;jettySize=auto;html=1;" edge="1" parent="1" source="SGOqDGirDXT0O3qRioqo-1" target="SGOqDGirDXT0O3qRioqo-4">
          <mxGeometry relative="1" as="geometry" />
        </mxCell>
        <mxCell id="SGOqDGirDXT0O3qRioqo-1" value="AI-Enanbled EMR System" style="rounded=0;whiteSpace=wrap;html=1;" vertex="1" parent="1">
          <mxGeometry x="320" y="90" width="150" height="60" as="geometry" />
        </mxCell>
        <mxCell id="SGOqDGirDXT0O3qRioqo-17" value="" style="edgeStyle=orthogonalEdgeStyle;rounded=0;orthogonalLoop=1;jettySize=auto;html=1;" edge="1" parent="1" source="SGOqDGirDXT0O3qRioqo-4" target="SGOqDGirDXT0O3qRioqo-16">
          <mxGeometry relative="1" as="geometry" />
        </mxCell>
        <mxCell id="SGOqDGirDXT0O3qRioqo-19" value="" style="edgeStyle=orthogonalEdgeStyle;rounded=0;orthogonalLoop=1;jettySize=auto;html=1;" edge="1" parent="1" source="SGOqDGirDXT0O3qRioqo-4" target="SGOqDGirDXT0O3qRioqo-18">
          <mxGeometry relative="1" as="geometry" />
        </mxCell>
        <mxCell id="SGOqDGirDXT0O3qRioqo-22" value="" style="edgeStyle=orthogonalEdgeStyle;rounded=0;orthogonalLoop=1;jettySize=auto;html=1;" edge="1" parent="1" source="SGOqDGirDXT0O3qRioqo-4" target="SGOqDGirDXT0O3qRioqo-21">
          <mxGeometry relative="1" as="geometry" />
        </mxCell>
        <mxCell id="SGOqDGirDXT0O3qRioqo-4" value="&lt;span style=&quot;--tw-border-spacing-x: 0; --tw-border-spacing-y: 0; --tw-translate-x: 0; --tw-translate-y: 0; --tw-rotate: 0; --tw-skew-x: 0; --tw-skew-y: 0; --tw-scale-x: 1; --tw-scale-y: 1; --tw-pan-x: ; --tw-pan-y: ; --tw-pinch-zoom: ; --tw-scroll-snap-strictness: proximity; --tw-gradient-from-position: ; --tw-gradient-via-position: ; --tw-gradient-to-position: ; --tw-ordinal: ; --tw-slashed-zero: ; --tw-numeric-figure: ; --tw-numeric-spacing: ; --tw-numeric-fraction: ; --tw-ring-inset: ; --tw-ring-offset-width: 0px; --tw-ring-offset-color: #fff; --tw-ring-color: rgba(59,130,246,.5); --tw-ring-offset-shadow: 0 0 #0000; --tw-ring-shadow: 0 0 #0000; --tw-shadow: 0 0 #0000; --tw-shadow-colored: 0 0 #0000; --tw-blur: ; --tw-brightness: ; --tw-contrast: ; --tw-grayscale: ; --tw-hue-rotate: ; --tw-invert: ; --tw-saturate: ; --tw-sepia: ; --tw-drop-shadow: ; --tw-backdrop-blur: ; --tw-backdrop-brightness: ; --tw-backdrop-contrast: ; --tw-backdrop-grayscale: ; --tw-backdrop-hue-rotate: ; --tw-backdrop-invert: ; --tw-backdrop-opacity: ; --tw-backdrop-saturate: ; --tw-backdrop-sepia: ; --tw-contain-size: ; --tw-contain-layout: ; --tw-contain-paint: ; --tw-contain-style: ; box-sizing: border-box; border: 0px solid rgb(228, 228, 231); font-weight: 600; color: rgb(17, 24, 39); font-family: __Inter_d65c78, __Inter_Fallback_d65c78, ui-sans-serif, system-ui, sans-serif, &amp;quot;Apple Color Emoji&amp;quot;, &amp;quot;Segoe UI Emoji&amp;quot;, &amp;quot;Segoe UI Symbol&amp;quot;, &amp;quot;Noto Color Emoji&amp;quot;; font-size: 16px; text-align: left; background-color: rgb(255, 255, 255);&quot;&gt;User Layer&lt;/span&gt;" style="whiteSpace=wrap;html=1;rounded=0;" vertex="1" parent="1">
          <mxGeometry x="-350" y="260" width="120" height="60" as="geometry" />
        </mxCell>
        <mxCell id="SGOqDGirDXT0O3qRioqo-6" value="&lt;span style=&quot;--tw-border-spacing-x: 0; --tw-border-spacing-y: 0; --tw-translate-x: 0; --tw-translate-y: 0; --tw-rotate: 0; --tw-skew-x: 0; --tw-skew-y: 0; --tw-scale-x: 1; --tw-scale-y: 1; --tw-pan-x: ; --tw-pan-y: ; --tw-pinch-zoom: ; --tw-scroll-snap-strictness: proximity; --tw-gradient-from-position: ; --tw-gradient-via-position: ; --tw-gradient-to-position: ; --tw-ordinal: ; --tw-slashed-zero: ; --tw-numeric-figure: ; --tw-numeric-spacing: ; --tw-numeric-fraction: ; --tw-ring-inset: ; --tw-ring-offset-width: 0px; --tw-ring-offset-color: #fff; --tw-ring-color: rgba(59,130,246,.5); --tw-ring-offset-shadow: 0 0 #0000; --tw-ring-shadow: 0 0 #0000; --tw-shadow: 0 0 #0000; --tw-shadow-colored: 0 0 #0000; --tw-blur: ; --tw-brightness: ; --tw-contrast: ; --tw-grayscale: ; --tw-hue-rotate: ; --tw-invert: ; --tw-saturate: ; --tw-sepia: ; --tw-drop-shadow: ; --tw-backdrop-blur: ; --tw-backdrop-brightness: ; --tw-backdrop-contrast: ; --tw-backdrop-grayscale: ; --tw-backdrop-hue-rotate: ; --tw-backdrop-invert: ; --tw-backdrop-opacity: ; --tw-backdrop-saturate: ; --tw-backdrop-sepia: ; --tw-contain-size: ; --tw-contain-layout: ; --tw-contain-paint: ; --tw-contain-style: ; box-sizing: border-box; border: 0px solid rgb(228, 228, 231); font-weight: 600; color: rgb(17, 24, 39); font-family: __Inter_d65c78, __Inter_Fallback_d65c78, ui-sans-serif, system-ui, sans-serif, &amp;quot;Apple Color Emoji&amp;quot;, &amp;quot;Segoe UI Emoji&amp;quot;, &amp;quot;Segoe UI Symbol&amp;quot;, &amp;quot;Noto Color Emoji&amp;quot;; font-size: 16px; text-align: left; background-color: rgb(255, 255, 255);&quot;&gt;Frontend Layer&lt;/span&gt;" style="whiteSpace=wrap;html=1;rounded=0;" vertex="1" parent="1">
          <mxGeometry x="240" y="240" width="120" height="60" as="geometry" />
        </mxCell>
        <mxCell id="SGOqDGirDXT0O3qRioqo-8" value="&lt;span style=&quot;--tw-border-spacing-x: 0; --tw-border-spacing-y: 0; --tw-translate-x: 0; --tw-translate-y: 0; --tw-rotate: 0; --tw-skew-x: 0; --tw-skew-y: 0; --tw-scale-x: 1; --tw-scale-y: 1; --tw-pan-x: ; --tw-pan-y: ; --tw-pinch-zoom: ; --tw-scroll-snap-strictness: proximity; --tw-gradient-from-position: ; --tw-gradient-via-position: ; --tw-gradient-to-position: ; --tw-ordinal: ; --tw-slashed-zero: ; --tw-numeric-figure: ; --tw-numeric-spacing: ; --tw-numeric-fraction: ; --tw-ring-inset: ; --tw-ring-offset-width: 0px; --tw-ring-offset-color: #fff; --tw-ring-color: rgba(59,130,246,.5); --tw-ring-offset-shadow: 0 0 #0000; --tw-ring-shadow: 0 0 #0000; --tw-shadow: 0 0 #0000; --tw-shadow-colored: 0 0 #0000; --tw-blur: ; --tw-brightness: ; --tw-contrast: ; --tw-grayscale: ; --tw-hue-rotate: ; --tw-invert: ; --tw-saturate: ; --tw-sepia: ; --tw-drop-shadow: ; --tw-backdrop-blur: ; --tw-backdrop-brightness: ; --tw-backdrop-contrast: ; --tw-backdrop-grayscale: ; --tw-backdrop-hue-rotate: ; --tw-backdrop-invert: ; --tw-backdrop-opacity: ; --tw-backdrop-saturate: ; --tw-backdrop-sepia: ; --tw-contain-size: ; --tw-contain-layout: ; --tw-contain-paint: ; --tw-contain-style: ; box-sizing: border-box; border: 0px solid rgb(228, 228, 231); font-weight: 600; color: rgb(17, 24, 39); font-family: __Inter_d65c78, __Inter_Fallback_d65c78, ui-sans-serif, system-ui, sans-serif, &amp;quot;Apple Color Emoji&amp;quot;, &amp;quot;Segoe UI Emoji&amp;quot;, &amp;quot;Segoe UI Symbol&amp;quot;, &amp;quot;Noto Color Emoji&amp;quot;; font-size: 16px; text-align: left; background-color: rgb(255, 255, 255);&quot;&gt;Backend Layer&lt;/span&gt;" style="whiteSpace=wrap;html=1;rounded=0;" vertex="1" parent="1">
          <mxGeometry x="460" y="240" width="120" height="60" as="geometry" />
        </mxCell>
        <mxCell id="SGOqDGirDXT0O3qRioqo-10" value="&lt;span style=&quot;--tw-border-spacing-x: 0; --tw-border-spacing-y: 0; --tw-translate-x: 0; --tw-translate-y: 0; --tw-rotate: 0; --tw-skew-x: 0; --tw-skew-y: 0; --tw-scale-x: 1; --tw-scale-y: 1; --tw-pan-x: ; --tw-pan-y: ; --tw-pinch-zoom: ; --tw-scroll-snap-strictness: proximity; --tw-gradient-from-position: ; --tw-gradient-via-position: ; --tw-gradient-to-position: ; --tw-ordinal: ; --tw-slashed-zero: ; --tw-numeric-figure: ; --tw-numeric-spacing: ; --tw-numeric-fraction: ; --tw-ring-inset: ; --tw-ring-offset-width: 0px; --tw-ring-offset-color: #fff; --tw-ring-color: rgba(59,130,246,.5); --tw-ring-offset-shadow: 0 0 #0000; --tw-ring-shadow: 0 0 #0000; --tw-shadow: 0 0 #0000; --tw-shadow-colored: 0 0 #0000; --tw-blur: ; --tw-brightness: ; --tw-contrast: ; --tw-grayscale: ; --tw-hue-rotate: ; --tw-invert: ; --tw-saturate: ; --tw-sepia: ; --tw-drop-shadow: ; --tw-backdrop-blur: ; --tw-backdrop-brightness: ; --tw-backdrop-contrast: ; --tw-backdrop-grayscale: ; --tw-backdrop-hue-rotate: ; --tw-backdrop-invert: ; --tw-backdrop-opacity: ; --tw-backdrop-saturate: ; --tw-backdrop-sepia: ; --tw-contain-size: ; --tw-contain-layout: ; --tw-contain-paint: ; --tw-contain-style: ; box-sizing: border-box; border: 0px solid rgb(228, 228, 231); font-weight: 600; color: rgb(17, 24, 39); font-family: __Inter_d65c78, __Inter_Fallback_d65c78, ui-sans-serif, system-ui, sans-serif, &amp;quot;Apple Color Emoji&amp;quot;, &amp;quot;Segoe UI Emoji&amp;quot;, &amp;quot;Segoe UI Symbol&amp;quot;, &amp;quot;Noto Color Emoji&amp;quot;; font-size: 16px; text-align: left; background-color: rgb(255, 255, 255);&quot;&gt;AI Layer&lt;/span&gt;" style="whiteSpace=wrap;html=1;rounded=0;" vertex="1" parent="1">
          <mxGeometry x="1070" y="240" width="120" height="60" as="geometry" />
        </mxCell>
        <mxCell id="SGOqDGirDXT0O3qRioqo-16" value="&lt;span style=&quot;--tw-border-spacing-x: 0; --tw-border-spacing-y: 0; --tw-translate-x: 0; --tw-translate-y: 0; --tw-rotate: 0; --tw-skew-x: 0; --tw-skew-y: 0; --tw-scale-x: 1; --tw-scale-y: 1; --tw-pan-x: ; --tw-pan-y: ; --tw-pinch-zoom: ; --tw-scroll-snap-strictness: proximity; --tw-gradient-from-position: ; --tw-gradient-via-position: ; --tw-gradient-to-position: ; --tw-ordinal: ; --tw-slashed-zero: ; --tw-numeric-figure: ; --tw-numeric-spacing: ; --tw-numeric-fraction: ; --tw-ring-inset: ; --tw-ring-offset-width: 0px; --tw-ring-offset-color: light-dark(#fff, #000000); --tw-ring-color: light-dark(rgba(59,130,246,.5), #4c89ec); --tw-ring-offset-shadow: 0 0 #0000; --tw-ring-shadow: 0 0 #0000; --tw-shadow: 0 0 #0000; --tw-shadow-colored: 0 0 #0000; --tw-blur: ; --tw-brightness: ; --tw-contrast: ; --tw-grayscale: ; --tw-hue-rotate: ; --tw-invert: ; --tw-saturate: ; --tw-sepia: ; --tw-drop-shadow: ; --tw-backdrop-blur: ; --tw-backdrop-brightness: ; --tw-backdrop-contrast: ; --tw-backdrop-grayscale: ; --tw-backdrop-hue-rotate: ; --tw-backdrop-invert: ; --tw-backdrop-opacity: ; --tw-backdrop-saturate: ; --tw-backdrop-sepia: ; --tw-contain-size: ; --tw-contain-layout: ; --tw-contain-paint: ; --tw-contain-style: ; box-sizing: border-box; border: 0px solid rgb(228, 228, 231); font-weight: 600; color: rgb(17, 24, 39); font-family: __Inter_d65c78, __Inter_Fallback_d65c78, ui-sans-serif, system-ui, sans-serif, &amp;quot;Apple Color Emoji&amp;quot;, &amp;quot;Segoe UI Emoji&amp;quot;, &amp;quot;Segoe UI Symbol&amp;quot;, &amp;quot;Noto Color Emoji&amp;quot;; font-size: 16px; text-align: left; background-color: rgb(255, 255, 255);&quot;&gt;user Authentication&lt;/span&gt;" style="whiteSpace=wrap;html=1;rounded=0;" vertex="1" parent="1">
          <mxGeometry x="-580" y="400" width="120" height="60" as="geometry" />
        </mxCell>
        <mxCell id="SGOqDGirDXT0O3qRioqo-18" value="&lt;span style=&quot;--tw-border-spacing-x: 0; --tw-border-spacing-y: 0; --tw-translate-x: 0; --tw-translate-y: 0; --tw-rotate: 0; --tw-skew-x: 0; --tw-skew-y: 0; --tw-scale-x: 1; --tw-scale-y: 1; --tw-pan-x: ; --tw-pan-y: ; --tw-pinch-zoom: ; --tw-scroll-snap-strictness: proximity; --tw-gradient-from-position: ; --tw-gradient-via-position: ; --tw-gradient-to-position: ; --tw-ordinal: ; --tw-slashed-zero: ; --tw-numeric-figure: ; --tw-numeric-spacing: ; --tw-numeric-fraction: ; --tw-ring-inset: ; --tw-ring-offset-width: 0px; --tw-ring-offset-color: light-dark(#fff, #000000); --tw-ring-color: light-dark(rgba(59,130,246,.5), #4c89ec); --tw-ring-offset-shadow: 0 0 #0000; --tw-ring-shadow: 0 0 #0000; --tw-shadow: 0 0 #0000; --tw-shadow-colored: 0 0 #0000; --tw-blur: ; --tw-brightness: ; --tw-contrast: ; --tw-grayscale: ; --tw-hue-rotate: ; --tw-invert: ; --tw-saturate: ; --tw-sepia: ; --tw-drop-shadow: ; --tw-backdrop-blur: ; --tw-backdrop-brightness: ; --tw-backdrop-contrast: ; --tw-backdrop-grayscale: ; --tw-backdrop-hue-rotate: ; --tw-backdrop-invert: ; --tw-backdrop-opacity: ; --tw-backdrop-saturate: ; --tw-backdrop-sepia: ; --tw-contain-size: ; --tw-contain-layout: ; --tw-contain-paint: ; --tw-contain-style: ; box-sizing: border-box; border: 0px solid rgb(228, 228, 231); font-weight: 600; color: rgb(17, 24, 39); font-family: __Inter_d65c78, __Inter_Fallback_d65c78, ui-sans-serif, system-ui, sans-serif, &amp;quot;Apple Color Emoji&amp;quot;, &amp;quot;Segoe UI Emoji&amp;quot;, &amp;quot;Segoe UI Symbol&amp;quot;, &amp;quot;Noto Color Emoji&amp;quot;; font-size: 16px; text-align: left; background-color: rgb(255, 255, 255);&quot;&gt;Dashboard and&amp;nbsp; Reporting&lt;/span&gt;" style="whiteSpace=wrap;html=1;rounded=0;" vertex="1" parent="1">
          <mxGeometry x="-350" y="400" width="120" height="60" as="geometry" />
        </mxCell>
        <mxCell id="SGOqDGirDXT0O3qRioqo-21" value="Data Entry and Interfaces" style="whiteSpace=wrap;html=1;rounded=0;" vertex="1" parent="1">
          <mxGeometry x="-140" y="400" width="120" height="60" as="geometry" />
        </mxCell>
      </root>
    </mxGraphModel>
  </diagram>
  <diagram id="ky4qOZ3AzZWuDzjLv5Ex" name="Page-2">
    <mxGraphModel dx="3775" dy="1872" grid="1" gridSize="10" guides="1" tooltips="1" connect="1" arrows="1" fold="1" page="1" pageScale="1" pageWidth="850" pageHeight="1100" math="0" shadow="0">
      <root>
        <mxCell id="0" />
        <mxCell id="1" parent="0" />
        <mxCell id="Ndxd8SOKxyI8qGX8Y5Bf-8" value="" style="edgeStyle=orthogonalEdgeStyle;rounded=0;orthogonalLoop=1;jettySize=auto;html=1;" edge="1" parent="1" source="Ndxd8SOKxyI8qGX8Y5Bf-1" target="Ndxd8SOKxyI8qGX8Y5Bf-7">
          <mxGeometry relative="1" as="geometry" />
        </mxCell>
        <mxCell id="Ndxd8SOKxyI8qGX8Y5Bf-47" style="edgeStyle=orthogonalEdgeStyle;rounded=0;orthogonalLoop=1;jettySize=auto;html=1;exitX=0.5;exitY=1;exitDx=0;exitDy=0;entryX=0.5;entryY=0;entryDx=0;entryDy=0;" edge="1" parent="1" source="Ndxd8SOKxyI8qGX8Y5Bf-1" target="Ndxd8SOKxyI8qGX8Y5Bf-3">
          <mxGeometry relative="1" as="geometry">
            <mxPoint x="-480" y="100.00000000000023" as="targetPoint" />
          </mxGeometry>
        </mxCell>
        <mxCell id="Ndxd8SOKxyI8qGX8Y5Bf-48" style="edgeStyle=orthogonalEdgeStyle;rounded=0;orthogonalLoop=1;jettySize=auto;html=1;exitX=0.5;exitY=1;exitDx=0;exitDy=0;entryX=0.5;entryY=0;entryDx=0;entryDy=0;" edge="1" parent="1" source="Ndxd8SOKxyI8qGX8Y5Bf-1" target="Ndxd8SOKxyI8qGX8Y5Bf-5">
          <mxGeometry relative="1" as="geometry">
            <mxPoint x="1070" y="50" as="targetPoint" />
          </mxGeometry>
        </mxCell>
        <mxCell id="Ndxd8SOKxyI8qGX8Y5Bf-1" value="AI-Enabled EMR System" style="rounded=1;whiteSpace=wrap;html=1;" vertex="1" parent="1">
          <mxGeometry x="170" y="-350" width="140" height="60" as="geometry" />
        </mxCell>
        <mxCell id="Ndxd8SOKxyI8qGX8Y5Bf-14" value="" style="edgeStyle=orthogonalEdgeStyle;rounded=0;orthogonalLoop=1;jettySize=auto;html=1;" edge="1" parent="1" source="Ndxd8SOKxyI8qGX8Y5Bf-3" target="Ndxd8SOKxyI8qGX8Y5Bf-13">
          <mxGeometry relative="1" as="geometry" />
        </mxCell>
        <mxCell id="Ndxd8SOKxyI8qGX8Y5Bf-16" value="" style="edgeStyle=orthogonalEdgeStyle;rounded=0;orthogonalLoop=1;jettySize=auto;html=1;" edge="1" parent="1" source="Ndxd8SOKxyI8qGX8Y5Bf-3" target="Ndxd8SOKxyI8qGX8Y5Bf-15">
          <mxGeometry relative="1" as="geometry" />
        </mxCell>
        <mxCell id="Ndxd8SOKxyI8qGX8Y5Bf-18" value="" style="edgeStyle=orthogonalEdgeStyle;rounded=0;orthogonalLoop=1;jettySize=auto;html=1;" edge="1" parent="1" source="Ndxd8SOKxyI8qGX8Y5Bf-3" target="Ndxd8SOKxyI8qGX8Y5Bf-17">
          <mxGeometry relative="1" as="geometry" />
        </mxCell>
        <mxCell id="Ndxd8SOKxyI8qGX8Y5Bf-19" value="" style="edgeStyle=orthogonalEdgeStyle;rounded=0;orthogonalLoop=1;jettySize=auto;html=1;" edge="1" parent="1" source="Ndxd8SOKxyI8qGX8Y5Bf-3" target="Ndxd8SOKxyI8qGX8Y5Bf-17">
          <mxGeometry relative="1" as="geometry" />
        </mxCell>
        <mxCell id="Ndxd8SOKxyI8qGX8Y5Bf-21" value="" style="edgeStyle=orthogonalEdgeStyle;rounded=0;orthogonalLoop=1;jettySize=auto;html=1;" edge="1" parent="1" source="Ndxd8SOKxyI8qGX8Y5Bf-3" target="Ndxd8SOKxyI8qGX8Y5Bf-20">
          <mxGeometry relative="1" as="geometry" />
        </mxCell>
        <mxCell id="Ndxd8SOKxyI8qGX8Y5Bf-23" value="" style="edgeStyle=orthogonalEdgeStyle;rounded=0;orthogonalLoop=1;jettySize=auto;html=1;" edge="1" parent="1" source="Ndxd8SOKxyI8qGX8Y5Bf-3" target="Ndxd8SOKxyI8qGX8Y5Bf-22">
          <mxGeometry relative="1" as="geometry" />
        </mxCell>
        <mxCell id="Ndxd8SOKxyI8qGX8Y5Bf-3" value="Admin Portal" style="whiteSpace=wrap;html=1;rounded=1;" vertex="1" parent="1">
          <mxGeometry x="-630" y="70" width="120" height="60" as="geometry" />
        </mxCell>
        <mxCell id="Ndxd8SOKxyI8qGX8Y5Bf-36" value="" style="edgeStyle=orthogonalEdgeStyle;rounded=0;orthogonalLoop=1;jettySize=auto;html=1;" edge="1" parent="1" source="Ndxd8SOKxyI8qGX8Y5Bf-5" target="Ndxd8SOKxyI8qGX8Y5Bf-35">
          <mxGeometry relative="1" as="geometry" />
        </mxCell>
        <mxCell id="Ndxd8SOKxyI8qGX8Y5Bf-38" value="" style="edgeStyle=orthogonalEdgeStyle;rounded=0;orthogonalLoop=1;jettySize=auto;html=1;" edge="1" parent="1" source="Ndxd8SOKxyI8qGX8Y5Bf-5" target="Ndxd8SOKxyI8qGX8Y5Bf-37">
          <mxGeometry relative="1" as="geometry" />
        </mxCell>
        <mxCell id="Ndxd8SOKxyI8qGX8Y5Bf-40" value="" style="edgeStyle=orthogonalEdgeStyle;rounded=0;orthogonalLoop=1;jettySize=auto;html=1;" edge="1" parent="1" source="Ndxd8SOKxyI8qGX8Y5Bf-5" target="Ndxd8SOKxyI8qGX8Y5Bf-39">
          <mxGeometry relative="1" as="geometry" />
        </mxCell>
        <mxCell id="Ndxd8SOKxyI8qGX8Y5Bf-42" value="" style="edgeStyle=orthogonalEdgeStyle;rounded=0;orthogonalLoop=1;jettySize=auto;html=1;" edge="1" parent="1" source="Ndxd8SOKxyI8qGX8Y5Bf-5" target="Ndxd8SOKxyI8qGX8Y5Bf-41">
          <mxGeometry relative="1" as="geometry" />
        </mxCell>
        <mxCell id="Ndxd8SOKxyI8qGX8Y5Bf-44" value="" style="edgeStyle=orthogonalEdgeStyle;rounded=0;orthogonalLoop=1;jettySize=auto;html=1;" edge="1" parent="1" source="Ndxd8SOKxyI8qGX8Y5Bf-5" target="Ndxd8SOKxyI8qGX8Y5Bf-43">
          <mxGeometry relative="1" as="geometry" />
        </mxCell>
        <mxCell id="Ndxd8SOKxyI8qGX8Y5Bf-46" value="" style="edgeStyle=orthogonalEdgeStyle;rounded=0;orthogonalLoop=1;jettySize=auto;html=1;" edge="1" parent="1" source="Ndxd8SOKxyI8qGX8Y5Bf-5" target="Ndxd8SOKxyI8qGX8Y5Bf-45">
          <mxGeometry relative="1" as="geometry" />
        </mxCell>
        <mxCell id="Ndxd8SOKxyI8qGX8Y5Bf-5" value="Doctor Portal" style="whiteSpace=wrap;html=1;rounded=1;" vertex="1" parent="1">
          <mxGeometry x="1170" y="70" width="120" height="60" as="geometry" />
        </mxCell>
        <mxCell id="Ndxd8SOKxyI8qGX8Y5Bf-25" value="" style="edgeStyle=orthogonalEdgeStyle;rounded=0;orthogonalLoop=1;jettySize=auto;html=1;" edge="1" parent="1" source="Ndxd8SOKxyI8qGX8Y5Bf-7" target="Ndxd8SOKxyI8qGX8Y5Bf-24">
          <mxGeometry relative="1" as="geometry" />
        </mxCell>
        <mxCell id="Ndxd8SOKxyI8qGX8Y5Bf-27" value="" style="edgeStyle=orthogonalEdgeStyle;rounded=0;orthogonalLoop=1;jettySize=auto;html=1;" edge="1" parent="1" source="Ndxd8SOKxyI8qGX8Y5Bf-7" target="Ndxd8SOKxyI8qGX8Y5Bf-26">
          <mxGeometry relative="1" as="geometry" />
        </mxCell>
        <mxCell id="Ndxd8SOKxyI8qGX8Y5Bf-29" value="" style="edgeStyle=orthogonalEdgeStyle;rounded=0;orthogonalLoop=1;jettySize=auto;html=1;" edge="1" parent="1" source="Ndxd8SOKxyI8qGX8Y5Bf-7" target="Ndxd8SOKxyI8qGX8Y5Bf-28">
          <mxGeometry relative="1" as="geometry" />
        </mxCell>
        <mxCell id="Ndxd8SOKxyI8qGX8Y5Bf-31" value="" style="edgeStyle=orthogonalEdgeStyle;rounded=0;orthogonalLoop=1;jettySize=auto;html=1;" edge="1" parent="1" source="Ndxd8SOKxyI8qGX8Y5Bf-7" target="Ndxd8SOKxyI8qGX8Y5Bf-30">
          <mxGeometry relative="1" as="geometry" />
        </mxCell>
        <mxCell id="Ndxd8SOKxyI8qGX8Y5Bf-34" value="" style="edgeStyle=orthogonalEdgeStyle;rounded=0;orthogonalLoop=1;jettySize=auto;html=1;" edge="1" parent="1" source="Ndxd8SOKxyI8qGX8Y5Bf-7" target="Ndxd8SOKxyI8qGX8Y5Bf-33">
          <mxGeometry relative="1" as="geometry" />
        </mxCell>
        <mxCell id="Ndxd8SOKxyI8qGX8Y5Bf-7" value="Patient Portal" style="whiteSpace=wrap;html=1;rounded=1;" vertex="1" parent="1">
          <mxGeometry x="180" y="70" width="120" height="60" as="geometry" />
        </mxCell>
        <mxCell id="Ndxd8SOKxyI8qGX8Y5Bf-13" value="User Management" style="whiteSpace=wrap;html=1;rounded=1;" vertex="1" parent="1">
          <mxGeometry x="-910" y="280" width="120" height="60" as="geometry" />
        </mxCell>
        <mxCell id="Ndxd8SOKxyI8qGX8Y5Bf-15" value="Access Control" style="whiteSpace=wrap;html=1;rounded=1;" vertex="1" parent="1">
          <mxGeometry x="-770" y="280" width="120" height="60" as="geometry" />
        </mxCell>
        <mxCell id="Ndxd8SOKxyI8qGX8Y5Bf-17" value="Approve Patient Data Requests" style="whiteSpace=wrap;html=1;rounded=1;" vertex="1" parent="1">
          <mxGeometry x="-630" y="280" width="120" height="60" as="geometry" />
        </mxCell>
        <mxCell id="Ndxd8SOKxyI8qGX8Y5Bf-20" value="Register new patient" style="whiteSpace=wrap;html=1;rounded=1;" vertex="1" parent="1">
          <mxGeometry x="-485" y="280" width="120" height="60" as="geometry" />
        </mxCell>
        <mxCell id="Ndxd8SOKxyI8qGX8Y5Bf-22" value="Assign doctor access to records" style="whiteSpace=wrap;html=1;rounded=1;" vertex="1" parent="1">
          <mxGeometry x="-340" y="280" width="120" height="60" as="geometry" />
        </mxCell>
        <mxCell id="Ndxd8SOKxyI8qGX8Y5Bf-24" value="Request Data Addition" style="whiteSpace=wrap;html=1;rounded=1;" vertex="1" parent="1">
          <mxGeometry x="180" y="280" width="120" height="60" as="geometry" />
        </mxCell>
        <mxCell id="Ndxd8SOKxyI8qGX8Y5Bf-26" value="View allergies, medications&amp;nbsp;" style="whiteSpace=wrap;html=1;rounded=1;" vertex="1" parent="1">
          <mxGeometry x="330" y="280" width="120" height="60" as="geometry" />
        </mxCell>
        <mxCell id="Ndxd8SOKxyI8qGX8Y5Bf-28" value="View Medical History" style="whiteSpace=wrap;html=1;rounded=1;" vertex="1" parent="1">
          <mxGeometry x="-130" y="280" width="120" height="60" as="geometry" />
        </mxCell>
        <mxCell id="Ndxd8SOKxyI8qGX8Y5Bf-30" value="Request new Appointment" style="whiteSpace=wrap;html=1;rounded=1;" vertex="1" parent="1">
          <mxGeometry x="30" y="280" width="120" height="60" as="geometry" />
        </mxCell>
        <mxCell id="Ndxd8SOKxyI8qGX8Y5Bf-33" value="Chatbot for Assistance" style="whiteSpace=wrap;html=1;rounded=1;" vertex="1" parent="1">
          <mxGeometry x="480" y="280" width="120" height="60" as="geometry" />
        </mxCell>
        <mxCell id="Ndxd8SOKxyI8qGX8Y5Bf-35" value="View and Update patient records" style="whiteSpace=wrap;html=1;rounded=1;" vertex="1" parent="1">
          <mxGeometry x="750" y="280" width="120" height="60" as="geometry" />
        </mxCell>
        <mxCell id="Ndxd8SOKxyI8qGX8Y5Bf-37" value="AI- Powered Patient History summarization" style="whiteSpace=wrap;html=1;rounded=1;" vertex="1" parent="1">
          <mxGeometry x="920" y="280" width="120" height="60" as="geometry" />
        </mxCell>
        <mxCell id="Ndxd8SOKxyI8qGX8Y5Bf-39" value="Create new examination and medical records" style="whiteSpace=wrap;html=1;rounded=1;" vertex="1" parent="1">
          <mxGeometry x="1090" y="280" width="120" height="60" as="geometry" />
        </mxCell>
        <mxCell id="Ndxd8SOKxyI8qGX8Y5Bf-41" value="AI-Powered X-ray/Image Analysis" style="whiteSpace=wrap;html=1;rounded=1;" vertex="1" parent="1">
          <mxGeometry x="1260" y="280" width="120" height="60" as="geometry" />
        </mxCell>
        <mxCell id="Ndxd8SOKxyI8qGX8Y5Bf-43" value="Review Lab Results, Prescriptions" style="whiteSpace=wrap;html=1;rounded=1;" vertex="1" parent="1">
          <mxGeometry x="1420" y="280" width="120" height="60" as="geometry" />
        </mxCell>
        <mxCell id="Ndxd8SOKxyI8qGX8Y5Bf-45" value="Chatbot for quick Query and Recommendations" style="whiteSpace=wrap;html=1;rounded=1;" vertex="1" parent="1">
          <mxGeometry x="1590" y="280" width="120" height="60" as="geometry" />
        </mxCell>
      </root>
    </mxGraphModel>
  </diagram>
  <diagram id="kWnhmrMBQurovNdripnK" name="Page-3">
    <mxGraphModel dx="2562" dy="1872" grid="1" gridSize="10" guides="1" tooltips="1" connect="1" arrows="1" fold="1" page="1" pageScale="1" pageWidth="850" pageHeight="1100" math="0" shadow="0">
      <root>
        <mxCell id="0" />
        <mxCell id="1" parent="0" />
        <mxCell id="Ag48U4sQw-ucjDmq0Y9a-59" style="edgeStyle=orthogonalEdgeStyle;rounded=0;orthogonalLoop=1;jettySize=auto;html=1;exitX=1;exitY=0.5;exitDx=0;exitDy=0;entryX=0;entryY=0.5;entryDx=0;entryDy=0;" edge="1" parent="1" source="Ag48U4sQw-ucjDmq0Y9a-3" target="Ag48U4sQw-ucjDmq0Y9a-54">
          <mxGeometry relative="1" as="geometry" />
        </mxCell>
        <mxCell id="Ag48U4sQw-ucjDmq0Y9a-3" value="Patient" style="rounded=0;whiteSpace=wrap;html=1;" vertex="1" parent="1">
          <mxGeometry x="-350" y="-440" width="120" height="60" as="geometry" />
        </mxCell>
        <mxCell id="Ag48U4sQw-ucjDmq0Y9a-4" value="Admin" style="rounded=0;whiteSpace=wrap;html=1;" vertex="1" parent="1">
          <mxGeometry x="50" y="220" width="120" height="60" as="geometry" />
        </mxCell>
        <mxCell id="Ag48U4sQw-ucjDmq0Y9a-6" value="Doctor" style="rounded=0;whiteSpace=wrap;html=1;" vertex="1" parent="1">
          <mxGeometry x="1100" y="-440" width="120" height="60" as="geometry" />
        </mxCell>
        <mxCell id="Ag48U4sQw-ucjDmq0Y9a-7" value="Lab-Test" style="rounded=0;whiteSpace=wrap;html=1;" vertex="1" parent="1">
          <mxGeometry x="40" y="720" width="120" height="60" as="geometry" />
        </mxCell>
        <mxCell id="Ag48U4sQw-ucjDmq0Y9a-8" value="Medicine" style="rounded=0;whiteSpace=wrap;html=1;" vertex="1" parent="1">
          <mxGeometry x="40" y="610" width="120" height="60" as="geometry" />
        </mxCell>
        <mxCell id="Ag48U4sQw-ucjDmq0Y9a-9" value="Prescription" style="rounded=0;whiteSpace=wrap;html=1;" vertex="1" parent="1">
          <mxGeometry x="50" y="510" width="120" height="60" as="geometry" />
        </mxCell>
        <mxCell id="Ag48U4sQw-ucjDmq0Y9a-10" value="Bill" style="rounded=0;whiteSpace=wrap;html=1;" vertex="1" parent="1">
          <mxGeometry x="290" y="510" width="120" height="60" as="geometry" />
        </mxCell>
        <mxCell id="Ag48U4sQw-ucjDmq0Y9a-11" value="&lt;span style=&quot;box-sizing: border-box; border: 0px solid rgb(229, 231, 235); scrollbar-color: auto; scrollbar-width: auto; --tw-border-spacing-x: 0; --tw-border-spacing-y: 0; --tw-translate-x: 0; --tw-translate-y: 0; --tw-rotate: 0; --tw-skew-x: 0; --tw-skew-y: 0; --tw-scale-x: 1; --tw-scale-y: 1; --tw-pan-x: ; --tw-pan-y: ; --tw-pinch-zoom: ; --tw-scroll-snap-strictness: proximity; --tw-gradient-from-position: ; --tw-gradient-via-position: ; --tw-gradient-to-position: ; --tw-ordinal: ; --tw-slashed-zero: ; --tw-numeric-figure: ; --tw-numeric-spacing: ; --tw-numeric-fraction: ; --tw-ring-inset: ; --tw-ring-offset-width: 0px; --tw-ring-offset-color: #fff; --tw-ring-color: rgb(59 130 246/0.5); --tw-ring-offset-shadow: 0 0 #0000; --tw-ring-shadow: 0 0 #0000; --tw-shadow: 0 0 #0000; --tw-shadow-colored: 0 0 #0000; --tw-blur: ; --tw-brightness: ; --tw-contrast: ; --tw-grayscale: ; --tw-hue-rotate: ; --tw-invert: ; --tw-saturate: ; --tw-sepia: ; --tw-drop-shadow: ; --tw-backdrop-blur: ; --tw-backdrop-brightness: ; --tw-backdrop-contrast: ; --tw-backdrop-grayscale: ; --tw-backdrop-hue-rotate: ; --tw-backdrop-invert: ; --tw-backdrop-opacity: ; --tw-backdrop-saturate: ; --tw-backdrop-sepia: ; --tw-contain-size: ; --tw-contain-layout: ; --tw-contain-paint: ; --tw-contain-style: ; color: oklch(0.304 0.04 213.681); font-family: fkGroteskNeue, &amp;quot;fkGroteskNeue Fallback&amp;quot;, ui-sans-serif, system-ui, -apple-system, BlinkMacSystemFont, &amp;quot;Segoe UI&amp;quot;, Roboto, &amp;quot;Helvetica Neue&amp;quot;, Arial, &amp;quot;Noto Sans&amp;quot;, sans-serif, &amp;quot;Apple Color Emoji&amp;quot;, &amp;quot;Segoe UI Emoji&amp;quot;, &amp;quot;Segoe UI Symbol&amp;quot;, &amp;quot;Noto Color Emoji&amp;quot;; font-size: 14px; text-align: start; background-color: oklch(0.99 0.004 106.471);&quot;&gt;DoctorID&lt;/span&gt;" style="ellipse;whiteSpace=wrap;html=1;" vertex="1" parent="1">
          <mxGeometry x="-170" y="120" width="120" height="80" as="geometry" />
        </mxCell>
        <mxCell id="Ag48U4sQw-ucjDmq0Y9a-12" value="&lt;span style=&quot;box-sizing: border-box; border: 0px solid rgb(229, 231, 235); scrollbar-color: auto; scrollbar-width: auto; --tw-border-spacing-x: 0; --tw-border-spacing-y: 0; --tw-translate-x: 0; --tw-translate-y: 0; --tw-rotate: 0; --tw-skew-x: 0; --tw-skew-y: 0; --tw-scale-x: 1; --tw-scale-y: 1; --tw-pan-x: ; --tw-pan-y: ; --tw-pinch-zoom: ; --tw-scroll-snap-strictness: proximity; --tw-gradient-from-position: ; --tw-gradient-via-position: ; --tw-gradient-to-position: ; --tw-ordinal: ; --tw-slashed-zero: ; --tw-numeric-figure: ; --tw-numeric-spacing: ; --tw-numeric-fraction: ; --tw-ring-inset: ; --tw-ring-offset-width: 0px; --tw-ring-offset-color: #fff; --tw-ring-color: rgb(59 130 246/0.5); --tw-ring-offset-shadow: 0 0 #0000; --tw-ring-shadow: 0 0 #0000; --tw-shadow: 0 0 #0000; --tw-shadow-colored: 0 0 #0000; --tw-blur: ; --tw-brightness: ; --tw-contrast: ; --tw-grayscale: ; --tw-hue-rotate: ; --tw-invert: ; --tw-saturate: ; --tw-sepia: ; --tw-drop-shadow: ; --tw-backdrop-blur: ; --tw-backdrop-brightness: ; --tw-backdrop-contrast: ; --tw-backdrop-grayscale: ; --tw-backdrop-hue-rotate: ; --tw-backdrop-invert: ; --tw-backdrop-opacity: ; --tw-backdrop-saturate: ; --tw-backdrop-sepia: ; --tw-contain-size: ; --tw-contain-layout: ; --tw-contain-paint: ; --tw-contain-style: ; color: oklch(0.304 0.04 213.681); font-family: fkGroteskNeue, &amp;quot;fkGroteskNeue Fallback&amp;quot;, ui-sans-serif, system-ui, -apple-system, BlinkMacSystemFont, &amp;quot;Segoe UI&amp;quot;, Roboto, &amp;quot;Helvetica Neue&amp;quot;, Arial, &amp;quot;Noto Sans&amp;quot;, sans-serif, &amp;quot;Apple Color Emoji&amp;quot;, &amp;quot;Segoe UI Emoji&amp;quot;, &amp;quot;Segoe UI Symbol&amp;quot;, &amp;quot;Noto Color Emoji&amp;quot;; font-size: 14px; text-align: start; background-color: oklch(0.99 0.004 106.471);&quot;&gt;PharmacyID&lt;/span&gt;" style="ellipse;whiteSpace=wrap;html=1;" vertex="1" parent="1">
          <mxGeometry x="-180" y="400" width="120" height="80" as="geometry" />
        </mxCell>
        <mxCell id="Ag48U4sQw-ucjDmq0Y9a-13" value="&lt;span style=&quot;box-sizing: border-box; border: 0px solid rgb(229, 231, 235); scrollbar-color: auto; scrollbar-width: auto; --tw-border-spacing-x: 0; --tw-border-spacing-y: 0; --tw-translate-x: 0; --tw-translate-y: 0; --tw-rotate: 0; --tw-skew-x: 0; --tw-skew-y: 0; --tw-scale-x: 1; --tw-scale-y: 1; --tw-pan-x: ; --tw-pan-y: ; --tw-pinch-zoom: ; --tw-scroll-snap-strictness: proximity; --tw-gradient-from-position: ; --tw-gradient-via-position: ; --tw-gradient-to-position: ; --tw-ordinal: ; --tw-slashed-zero: ; --tw-numeric-figure: ; --tw-numeric-spacing: ; --tw-numeric-fraction: ; --tw-ring-inset: ; --tw-ring-offset-width: 0px; --tw-ring-offset-color: #fff; --tw-ring-color: rgb(59 130 246/0.5); --tw-ring-offset-shadow: 0 0 #0000; --tw-ring-shadow: 0 0 #0000; --tw-shadow: 0 0 #0000; --tw-shadow-colored: 0 0 #0000; --tw-blur: ; --tw-brightness: ; --tw-contrast: ; --tw-grayscale: ; --tw-hue-rotate: ; --tw-invert: ; --tw-saturate: ; --tw-sepia: ; --tw-drop-shadow: ; --tw-backdrop-blur: ; --tw-backdrop-brightness: ; --tw-backdrop-contrast: ; --tw-backdrop-grayscale: ; --tw-backdrop-hue-rotate: ; --tw-backdrop-invert: ; --tw-backdrop-opacity: ; --tw-backdrop-saturate: ; --tw-backdrop-sepia: ; --tw-contain-size: ; --tw-contain-layout: ; --tw-contain-paint: ; --tw-contain-style: ; color: oklch(0.304 0.04 213.681); font-family: fkGroteskNeue, &amp;quot;fkGroteskNeue Fallback&amp;quot;, ui-sans-serif, system-ui, -apple-system, BlinkMacSystemFont, &amp;quot;Segoe UI&amp;quot;, Roboto, &amp;quot;Helvetica Neue&amp;quot;, Arial, &amp;quot;Noto Sans&amp;quot;, sans-serif, &amp;quot;Apple Color Emoji&amp;quot;, &amp;quot;Segoe UI Emoji&amp;quot;, &amp;quot;Segoe UI Symbol&amp;quot;, &amp;quot;Noto Color Emoji&amp;quot;; font-size: 14px; text-align: start; background-color: oklch(0.99 0.004 106.471);&quot;&gt;AdminID&lt;/span&gt;" style="ellipse;whiteSpace=wrap;html=1;" vertex="1" parent="1">
          <mxGeometry x="-190" y="310" width="120" height="80" as="geometry" />
        </mxCell>
        <mxCell id="Ag48U4sQw-ucjDmq0Y9a-15" value="&lt;span style=&quot;box-sizing: border-box; border: 0px solid rgb(229, 231, 235); scrollbar-color: auto; scrollbar-width: auto; --tw-border-spacing-x: 0; --tw-border-spacing-y: 0; --tw-translate-x: 0; --tw-translate-y: 0; --tw-rotate: 0; --tw-skew-x: 0; --tw-skew-y: 0; --tw-scale-x: 1; --tw-scale-y: 1; --tw-pan-x: ; --tw-pan-y: ; --tw-pinch-zoom: ; --tw-scroll-snap-strictness: proximity; --tw-gradient-from-position: ; --tw-gradient-via-position: ; --tw-gradient-to-position: ; --tw-ordinal: ; --tw-slashed-zero: ; --tw-numeric-figure: ; --tw-numeric-spacing: ; --tw-numeric-fraction: ; --tw-ring-inset: ; --tw-ring-offset-width: 0px; --tw-ring-offset-color: #fff; --tw-ring-color: rgb(59 130 246/0.5); --tw-ring-offset-shadow: 0 0 #0000; --tw-ring-shadow: 0 0 #0000; --tw-shadow: 0 0 #0000; --tw-shadow-colored: 0 0 #0000; --tw-blur: ; --tw-brightness: ; --tw-contrast: ; --tw-grayscale: ; --tw-hue-rotate: ; --tw-invert: ; --tw-saturate: ; --tw-sepia: ; --tw-drop-shadow: ; --tw-backdrop-blur: ; --tw-backdrop-brightness: ; --tw-backdrop-contrast: ; --tw-backdrop-grayscale: ; --tw-backdrop-hue-rotate: ; --tw-backdrop-invert: ; --tw-backdrop-opacity: ; --tw-backdrop-saturate: ; --tw-backdrop-sepia: ; --tw-contain-size: ; --tw-contain-layout: ; --tw-contain-paint: ; --tw-contain-style: ; color: oklch(0.304 0.04 213.681); font-family: fkGroteskNeue, &amp;quot;fkGroteskNeue Fallback&amp;quot;, ui-sans-serif, system-ui, -apple-system, BlinkMacSystemFont, &amp;quot;Segoe UI&amp;quot;, Roboto, &amp;quot;Helvetica Neue&amp;quot;, Arial, &amp;quot;Noto Sans&amp;quot;, sans-serif, &amp;quot;Apple Color Emoji&amp;quot;, &amp;quot;Segoe UI Emoji&amp;quot;, &amp;quot;Segoe UI Symbol&amp;quot;, &amp;quot;Noto Color Emoji&amp;quot;; font-size: 14px; text-align: start; background-color: oklch(0.99 0.004 106.471);&quot;&gt;AppointmentID&lt;/span&gt;" style="ellipse;whiteSpace=wrap;html=1;" vertex="1" parent="1">
          <mxGeometry x="-160" y="200" width="120" height="80" as="geometry" />
        </mxCell>
        <mxCell id="Ag48U4sQw-ucjDmq0Y9a-16" value="&lt;span style=&quot;box-sizing: border-box; border: 0px solid rgb(229, 231, 235); scrollbar-color: auto; scrollbar-width: auto; --tw-border-spacing-x: 0; --tw-border-spacing-y: 0; --tw-translate-x: 0; --tw-translate-y: 0; --tw-rotate: 0; --tw-skew-x: 0; --tw-skew-y: 0; --tw-scale-x: 1; --tw-scale-y: 1; --tw-pan-x: ; --tw-pan-y: ; --tw-pinch-zoom: ; --tw-scroll-snap-strictness: proximity; --tw-gradient-from-position: ; --tw-gradient-via-position: ; --tw-gradient-to-position: ; --tw-ordinal: ; --tw-slashed-zero: ; --tw-numeric-figure: ; --tw-numeric-spacing: ; --tw-numeric-fraction: ; --tw-ring-inset: ; --tw-ring-offset-width: 0px; --tw-ring-offset-color: #fff; --tw-ring-color: rgb(59 130 246/0.5); --tw-ring-offset-shadow: 0 0 #0000; --tw-ring-shadow: 0 0 #0000; --tw-shadow: 0 0 #0000; --tw-shadow-colored: 0 0 #0000; --tw-blur: ; --tw-brightness: ; --tw-contrast: ; --tw-grayscale: ; --tw-hue-rotate: ; --tw-invert: ; --tw-saturate: ; --tw-sepia: ; --tw-drop-shadow: ; --tw-backdrop-blur: ; --tw-backdrop-brightness: ; --tw-backdrop-contrast: ; --tw-backdrop-grayscale: ; --tw-backdrop-hue-rotate: ; --tw-backdrop-invert: ; --tw-backdrop-opacity: ; --tw-backdrop-saturate: ; --tw-backdrop-sepia: ; --tw-contain-size: ; --tw-contain-layout: ; --tw-contain-paint: ; --tw-contain-style: ; color: oklch(0.304 0.04 213.681); font-family: fkGroteskNeue, &amp;quot;fkGroteskNeue Fallback&amp;quot;, ui-sans-serif, system-ui, -apple-system, BlinkMacSystemFont, &amp;quot;Segoe UI&amp;quot;, Roboto, &amp;quot;Helvetica Neue&amp;quot;, Arial, &amp;quot;Noto Sans&amp;quot;, sans-serif, &amp;quot;Apple Color Emoji&amp;quot;, &amp;quot;Segoe UI Emoji&amp;quot;, &amp;quot;Segoe UI Symbol&amp;quot;, &amp;quot;Noto Color Emoji&amp;quot;; font-size: 14px; text-align: start; background-color: oklch(0.99 0.004 106.471);&quot;&gt;PrescriptionID&lt;/span&gt;" style="ellipse;whiteSpace=wrap;html=1;" vertex="1" parent="1">
          <mxGeometry x="-170" y="500" width="120" height="80" as="geometry" />
        </mxCell>
        <mxCell id="Ag48U4sQw-ucjDmq0Y9a-17" value="&lt;span style=&quot;box-sizing: border-box; border: 0px solid rgb(229, 231, 235); scrollbar-color: auto; scrollbar-width: auto; --tw-border-spacing-x: 0; --tw-border-spacing-y: 0; --tw-translate-x: 0; --tw-translate-y: 0; --tw-rotate: 0; --tw-skew-x: 0; --tw-skew-y: 0; --tw-scale-x: 1; --tw-scale-y: 1; --tw-pan-x: ; --tw-pan-y: ; --tw-pinch-zoom: ; --tw-scroll-snap-strictness: proximity; --tw-gradient-from-position: ; --tw-gradient-via-position: ; --tw-gradient-to-position: ; --tw-ordinal: ; --tw-slashed-zero: ; --tw-numeric-figure: ; --tw-numeric-spacing: ; --tw-numeric-fraction: ; --tw-ring-inset: ; --tw-ring-offset-width: 0px; --tw-ring-offset-color: #fff; --tw-ring-color: rgb(59 130 246/0.5); --tw-ring-offset-shadow: 0 0 #0000; --tw-ring-shadow: 0 0 #0000; --tw-shadow: 0 0 #0000; --tw-shadow-colored: 0 0 #0000; --tw-blur: ; --tw-brightness: ; --tw-contrast: ; --tw-grayscale: ; --tw-hue-rotate: ; --tw-invert: ; --tw-saturate: ; --tw-sepia: ; --tw-drop-shadow: ; --tw-backdrop-blur: ; --tw-backdrop-brightness: ; --tw-backdrop-contrast: ; --tw-backdrop-grayscale: ; --tw-backdrop-hue-rotate: ; --tw-backdrop-invert: ; --tw-backdrop-opacity: ; --tw-backdrop-saturate: ; --tw-backdrop-sepia: ; --tw-contain-size: ; --tw-contain-layout: ; --tw-contain-paint: ; --tw-contain-style: ; color: oklch(0.304 0.04 213.681); font-family: fkGroteskNeue, &amp;quot;fkGroteskNeue Fallback&amp;quot;, ui-sans-serif, system-ui, -apple-system, BlinkMacSystemFont, &amp;quot;Segoe UI&amp;quot;, Roboto, &amp;quot;Helvetica Neue&amp;quot;, Arial, &amp;quot;Noto Sans&amp;quot;, sans-serif, &amp;quot;Apple Color Emoji&amp;quot;, &amp;quot;Segoe UI Emoji&amp;quot;, &amp;quot;Segoe UI Symbol&amp;quot;, &amp;quot;Noto Color Emoji&amp;quot;; font-size: 14px; text-align: start; background-color: oklch(0.99 0.004 106.471);&quot;&gt;BillID&lt;/span&gt;" style="ellipse;whiteSpace=wrap;html=1;" vertex="1" parent="1">
          <mxGeometry x="730" y="230" width="120" height="80" as="geometry" />
        </mxCell>
        <mxCell id="Ag48U4sQw-ucjDmq0Y9a-19" value="&lt;span style=&quot;box-sizing: border-box; border: 0px solid rgb(229, 231, 235); scrollbar-color: auto; scrollbar-width: auto; --tw-border-spacing-x: 0; --tw-border-spacing-y: 0; --tw-translate-x: 0; --tw-translate-y: 0; --tw-rotate: 0; --tw-skew-x: 0; --tw-skew-y: 0; --tw-scale-x: 1; --tw-scale-y: 1; --tw-pan-x: ; --tw-pan-y: ; --tw-pinch-zoom: ; --tw-scroll-snap-strictness: proximity; --tw-gradient-from-position: ; --tw-gradient-via-position: ; --tw-gradient-to-position: ; --tw-ordinal: ; --tw-slashed-zero: ; --tw-numeric-figure: ; --tw-numeric-spacing: ; --tw-numeric-fraction: ; --tw-ring-inset: ; --tw-ring-offset-width: 0px; --tw-ring-offset-color: #fff; --tw-ring-color: rgb(59 130 246/0.5); --tw-ring-offset-shadow: 0 0 #0000; --tw-ring-shadow: 0 0 #0000; --tw-shadow: 0 0 #0000; --tw-shadow-colored: 0 0 #0000; --tw-blur: ; --tw-brightness: ; --tw-contrast: ; --tw-grayscale: ; --tw-hue-rotate: ; --tw-invert: ; --tw-saturate: ; --tw-sepia: ; --tw-drop-shadow: ; --tw-backdrop-blur: ; --tw-backdrop-brightness: ; --tw-backdrop-contrast: ; --tw-backdrop-grayscale: ; --tw-backdrop-hue-rotate: ; --tw-backdrop-invert: ; --tw-backdrop-opacity: ; --tw-backdrop-saturate: ; --tw-backdrop-sepia: ; --tw-contain-size: ; --tw-contain-layout: ; --tw-contain-paint: ; --tw-contain-style: ; color: oklch(0.304 0.04 213.681); font-family: fkGroteskNeue, &amp;quot;fkGroteskNeue Fallback&amp;quot;, ui-sans-serif, system-ui, -apple-system, BlinkMacSystemFont, &amp;quot;Segoe UI&amp;quot;, Roboto, &amp;quot;Helvetica Neue&amp;quot;, Arial, &amp;quot;Noto Sans&amp;quot;, sans-serif, &amp;quot;Apple Color Emoji&amp;quot;, &amp;quot;Segoe UI Emoji&amp;quot;, &amp;quot;Segoe UI Symbol&amp;quot;, &amp;quot;Noto Color Emoji&amp;quot;; font-size: 14px; text-align: start; background-color: oklch(0.99 0.004 106.471);&quot;&gt;LabTestID&lt;/span&gt;" style="ellipse;whiteSpace=wrap;html=1;" vertex="1" parent="1">
          <mxGeometry x="-170" y="820" width="120" height="80" as="geometry" />
        </mxCell>
        <mxCell id="Ag48U4sQw-ucjDmq0Y9a-20" value="&lt;span style=&quot;box-sizing: border-box; border: 0px solid rgb(229, 231, 235); scrollbar-color: auto; scrollbar-width: auto; --tw-border-spacing-x: 0; --tw-border-spacing-y: 0; --tw-translate-x: 0; --tw-translate-y: 0; --tw-rotate: 0; --tw-skew-x: 0; --tw-skew-y: 0; --tw-scale-x: 1; --tw-scale-y: 1; --tw-pan-x: ; --tw-pan-y: ; --tw-pinch-zoom: ; --tw-scroll-snap-strictness: proximity; --tw-gradient-from-position: ; --tw-gradient-via-position: ; --tw-gradient-to-position: ; --tw-ordinal: ; --tw-slashed-zero: ; --tw-numeric-figure: ; --tw-numeric-spacing: ; --tw-numeric-fraction: ; --tw-ring-inset: ; --tw-ring-offset-width: 0px; --tw-ring-offset-color: #fff; --tw-ring-color: rgb(59 130 246/0.5); --tw-ring-offset-shadow: 0 0 #0000; --tw-ring-shadow: 0 0 #0000; --tw-shadow: 0 0 #0000; --tw-shadow-colored: 0 0 #0000; --tw-blur: ; --tw-brightness: ; --tw-contrast: ; --tw-grayscale: ; --tw-hue-rotate: ; --tw-invert: ; --tw-saturate: ; --tw-sepia: ; --tw-drop-shadow: ; --tw-backdrop-blur: ; --tw-backdrop-brightness: ; --tw-backdrop-contrast: ; --tw-backdrop-grayscale: ; --tw-backdrop-hue-rotate: ; --tw-backdrop-invert: ; --tw-backdrop-opacity: ; --tw-backdrop-saturate: ; --tw-backdrop-sepia: ; --tw-contain-size: ; --tw-contain-layout: ; --tw-contain-paint: ; --tw-contain-style: ; color: oklch(0.304 0.04 213.681); font-family: fkGroteskNeue, &amp;quot;fkGroteskNeue Fallback&amp;quot;, ui-sans-serif, system-ui, -apple-system, BlinkMacSystemFont, &amp;quot;Segoe UI&amp;quot;, Roboto, &amp;quot;Helvetica Neue&amp;quot;, Arial, &amp;quot;Noto Sans&amp;quot;, sans-serif, &amp;quot;Apple Color Emoji&amp;quot;, &amp;quot;Segoe UI Emoji&amp;quot;, &amp;quot;Segoe UI Symbol&amp;quot;, &amp;quot;Noto Color Emoji&amp;quot;; font-size: 14px; text-align: start; background-color: oklch(0.99 0.004 106.471);&quot;&gt;UserID&lt;/span&gt;" style="ellipse;whiteSpace=wrap;html=1;" vertex="1" parent="1">
          <mxGeometry x="710" y="30" width="120" height="80" as="geometry" />
        </mxCell>
        <mxCell id="Ag48U4sQw-ucjDmq0Y9a-21" value="&lt;span style=&quot;box-sizing: border-box; border: 0px solid rgb(229, 231, 235); scrollbar-color: auto; scrollbar-width: auto; --tw-border-spacing-x: 0; --tw-border-spacing-y: 0; --tw-translate-x: 0; --tw-translate-y: 0; --tw-rotate: 0; --tw-skew-x: 0; --tw-skew-y: 0; --tw-scale-x: 1; --tw-scale-y: 1; --tw-pan-x: ; --tw-pan-y: ; --tw-pinch-zoom: ; --tw-scroll-snap-strictness: proximity; --tw-gradient-from-position: ; --tw-gradient-via-position: ; --tw-gradient-to-position: ; --tw-ordinal: ; --tw-slashed-zero: ; --tw-numeric-figure: ; --tw-numeric-spacing: ; --tw-numeric-fraction: ; --tw-ring-inset: ; --tw-ring-offset-width: 0px; --tw-ring-offset-color: #fff; --tw-ring-color: rgb(59 130 246/0.5); --tw-ring-offset-shadow: 0 0 #0000; --tw-ring-shadow: 0 0 #0000; --tw-shadow: 0 0 #0000; --tw-shadow-colored: 0 0 #0000; --tw-blur: ; --tw-brightness: ; --tw-contrast: ; --tw-grayscale: ; --tw-hue-rotate: ; --tw-invert: ; --tw-saturate: ; --tw-sepia: ; --tw-drop-shadow: ; --tw-backdrop-blur: ; --tw-backdrop-brightness: ; --tw-backdrop-contrast: ; --tw-backdrop-grayscale: ; --tw-backdrop-hue-rotate: ; --tw-backdrop-invert: ; --tw-backdrop-opacity: ; --tw-backdrop-saturate: ; --tw-backdrop-sepia: ; --tw-contain-size: ; --tw-contain-layout: ; --tw-contain-paint: ; --tw-contain-style: ; color: oklch(0.304 0.04 213.681); font-family: fkGroteskNeue, &amp;quot;fkGroteskNeue Fallback&amp;quot;, ui-sans-serif, system-ui, -apple-system, BlinkMacSystemFont, &amp;quot;Segoe UI&amp;quot;, Roboto, &amp;quot;Helvetica Neue&amp;quot;, Arial, &amp;quot;Noto Sans&amp;quot;, sans-serif, &amp;quot;Apple Color Emoji&amp;quot;, &amp;quot;Segoe UI Emoji&amp;quot;, &amp;quot;Segoe UI Symbol&amp;quot;, &amp;quot;Noto Color Emoji&amp;quot;; font-size: 14px; text-align: start; background-color: oklch(0.99 0.004 106.471);&quot;&gt;LabOrderID&lt;/span&gt;" style="ellipse;whiteSpace=wrap;html=1;" vertex="1" parent="1">
          <mxGeometry x="470" y="340" width="120" height="80" as="geometry" />
        </mxCell>
        <mxCell id="Ag48U4sQw-ucjDmq0Y9a-22" value="&lt;span style=&quot;box-sizing: border-box; border: 0px solid rgb(229, 231, 235); scrollbar-color: auto; scrollbar-width: auto; --tw-border-spacing-x: 0; --tw-border-spacing-y: 0; --tw-translate-x: 0; --tw-translate-y: 0; --tw-rotate: 0; --tw-skew-x: 0; --tw-skew-y: 0; --tw-scale-x: 1; --tw-scale-y: 1; --tw-pan-x: ; --tw-pan-y: ; --tw-pinch-zoom: ; --tw-scroll-snap-strictness: proximity; --tw-gradient-from-position: ; --tw-gradient-via-position: ; --tw-gradient-to-position: ; --tw-ordinal: ; --tw-slashed-zero: ; --tw-numeric-figure: ; --tw-numeric-spacing: ; --tw-numeric-fraction: ; --tw-ring-inset: ; --tw-ring-offset-width: 0px; --tw-ring-offset-color: #fff; --tw-ring-color: rgb(59 130 246/0.5); --tw-ring-offset-shadow: 0 0 #0000; --tw-ring-shadow: 0 0 #0000; --tw-shadow: 0 0 #0000; --tw-shadow-colored: 0 0 #0000; --tw-blur: ; --tw-brightness: ; --tw-contrast: ; --tw-grayscale: ; --tw-hue-rotate: ; --tw-invert: ; --tw-saturate: ; --tw-sepia: ; --tw-drop-shadow: ; --tw-backdrop-blur: ; --tw-backdrop-brightness: ; --tw-backdrop-contrast: ; --tw-backdrop-grayscale: ; --tw-backdrop-hue-rotate: ; --tw-backdrop-invert: ; --tw-backdrop-opacity: ; --tw-backdrop-saturate: ; --tw-backdrop-sepia: ; --tw-contain-size: ; --tw-contain-layout: ; --tw-contain-paint: ; --tw-contain-style: ; color: oklch(0.304 0.04 213.681); font-family: fkGroteskNeue, &amp;quot;fkGroteskNeue Fallback&amp;quot;, ui-sans-serif, system-ui, -apple-system, BlinkMacSystemFont, &amp;quot;Segoe UI&amp;quot;, Roboto, &amp;quot;Helvetica Neue&amp;quot;, Arial, &amp;quot;Noto Sans&amp;quot;, sans-serif, &amp;quot;Apple Color Emoji&amp;quot;, &amp;quot;Segoe UI Emoji&amp;quot;, &amp;quot;Segoe UI Symbol&amp;quot;, &amp;quot;Noto Color Emoji&amp;quot;; font-size: 14px; text-align: start; background-color: oklch(0.99 0.004 106.471);&quot;&gt;InventoryID&lt;/span&gt;" style="ellipse;whiteSpace=wrap;html=1;" vertex="1" parent="1">
          <mxGeometry x="730" y="130" width="120" height="80" as="geometry" />
        </mxCell>
        <mxCell id="Ag48U4sQw-ucjDmq0Y9a-24" value="&lt;span style=&quot;box-sizing: border-box; border: 0px solid rgb(229, 231, 235); scrollbar-color: auto; scrollbar-width: auto; --tw-border-spacing-x: 0; --tw-border-spacing-y: 0; --tw-translate-x: 0; --tw-translate-y: 0; --tw-rotate: 0; --tw-skew-x: 0; --tw-skew-y: 0; --tw-scale-x: 1; --tw-scale-y: 1; --tw-pan-x: ; --tw-pan-y: ; --tw-pinch-zoom: ; --tw-scroll-snap-strictness: proximity; --tw-gradient-from-position: ; --tw-gradient-via-position: ; --tw-gradient-to-position: ; --tw-ordinal: ; --tw-slashed-zero: ; --tw-numeric-figure: ; --tw-numeric-spacing: ; --tw-numeric-fraction: ; --tw-ring-inset: ; --tw-ring-offset-width: 0px; --tw-ring-offset-color: #fff; --tw-ring-color: rgb(59 130 246/0.5); --tw-ring-offset-shadow: 0 0 #0000; --tw-ring-shadow: 0 0 #0000; --tw-shadow: 0 0 #0000; --tw-shadow-colored: 0 0 #0000; --tw-blur: ; --tw-brightness: ; --tw-contrast: ; --tw-grayscale: ; --tw-hue-rotate: ; --tw-invert: ; --tw-saturate: ; --tw-sepia: ; --tw-drop-shadow: ; --tw-backdrop-blur: ; --tw-backdrop-brightness: ; --tw-backdrop-contrast: ; --tw-backdrop-grayscale: ; --tw-backdrop-hue-rotate: ; --tw-backdrop-invert: ; --tw-backdrop-opacity: ; --tw-backdrop-saturate: ; --tw-backdrop-sepia: ; --tw-contain-size: ; --tw-contain-layout: ; --tw-contain-paint: ; --tw-contain-style: ; color: oklch(0.304 0.04 213.681); font-family: fkGroteskNeue, &amp;quot;fkGroteskNeue Fallback&amp;quot;, ui-sans-serif, system-ui, -apple-system, BlinkMacSystemFont, &amp;quot;Segoe UI&amp;quot;, Roboto, &amp;quot;Helvetica Neue&amp;quot;, Arial, &amp;quot;Noto Sans&amp;quot;, sans-serif, &amp;quot;Apple Color Emoji&amp;quot;, &amp;quot;Segoe UI Emoji&amp;quot;, &amp;quot;Segoe UI Symbol&amp;quot;, &amp;quot;Noto Color Emoji&amp;quot;; font-size: 14px; text-align: start; background-color: oklch(0.99 0.004 106.471);&quot;&gt;LabResult&lt;/span&gt;" style="rounded=0;whiteSpace=wrap;html=1;" vertex="1" parent="1">
          <mxGeometry x="40" y="830" width="120" height="60" as="geometry" />
        </mxCell>
        <mxCell id="Ag48U4sQw-ucjDmq0Y9a-26" value="&lt;span style=&quot;box-sizing: border-box; border: 0px solid rgb(229, 231, 235); scrollbar-color: auto; scrollbar-width: auto; --tw-border-spacing-x: 0; --tw-border-spacing-y: 0; --tw-translate-x: 0; --tw-translate-y: 0; --tw-rotate: 0; --tw-skew-x: 0; --tw-skew-y: 0; --tw-scale-x: 1; --tw-scale-y: 1; --tw-pan-x: ; --tw-pan-y: ; --tw-pinch-zoom: ; --tw-scroll-snap-strictness: proximity; --tw-gradient-from-position: ; --tw-gradient-via-position: ; --tw-gradient-to-position: ; --tw-ordinal: ; --tw-slashed-zero: ; --tw-numeric-figure: ; --tw-numeric-spacing: ; --tw-numeric-fraction: ; --tw-ring-inset: ; --tw-ring-offset-width: 0px; --tw-ring-offset-color: #fff; --tw-ring-color: rgb(59 130 246/0.5); --tw-ring-offset-shadow: 0 0 #0000; --tw-ring-shadow: 0 0 #0000; --tw-shadow: 0 0 #0000; --tw-shadow-colored: 0 0 #0000; --tw-blur: ; --tw-brightness: ; --tw-contrast: ; --tw-grayscale: ; --tw-hue-rotate: ; --tw-invert: ; --tw-saturate: ; --tw-sepia: ; --tw-drop-shadow: ; --tw-backdrop-blur: ; --tw-backdrop-brightness: ; --tw-backdrop-contrast: ; --tw-backdrop-grayscale: ; --tw-backdrop-hue-rotate: ; --tw-backdrop-invert: ; --tw-backdrop-opacity: ; --tw-backdrop-saturate: ; --tw-backdrop-sepia: ; --tw-contain-size: ; --tw-contain-layout: ; --tw-contain-paint: ; --tw-contain-style: ; color: oklch(0.304 0.04 213.681); font-family: fkGroteskNeue, &amp;quot;fkGroteskNeue Fallback&amp;quot;, ui-sans-serif, system-ui, -apple-system, BlinkMacSystemFont, &amp;quot;Segoe UI&amp;quot;, Roboto, &amp;quot;Helvetica Neue&amp;quot;, Arial, &amp;quot;Noto Sans&amp;quot;, sans-serif, &amp;quot;Apple Color Emoji&amp;quot;, &amp;quot;Segoe UI Emoji&amp;quot;, &amp;quot;Segoe UI Symbol&amp;quot;, &amp;quot;Noto Color Emoji&amp;quot;; font-size: 14px; text-align: start; background-color: oklch(0.99 0.004 106.471);&quot;&gt;Billing&lt;/span&gt;" style="rounded=0;whiteSpace=wrap;html=1;" vertex="1" parent="1">
          <mxGeometry x="900" y="220" width="120" height="60" as="geometry" />
        </mxCell>
        <mxCell id="Ag48U4sQw-ucjDmq0Y9a-27" value="&lt;span style=&quot;box-sizing: border-box; border: 0px solid rgb(229, 231, 235); scrollbar-color: auto; scrollbar-width: auto; --tw-border-spacing-x: 0; --tw-border-spacing-y: 0; --tw-translate-x: 0; --tw-translate-y: 0; --tw-rotate: 0; --tw-skew-x: 0; --tw-skew-y: 0; --tw-scale-x: 1; --tw-scale-y: 1; --tw-pan-x: ; --tw-pan-y: ; --tw-pinch-zoom: ; --tw-scroll-snap-strictness: proximity; --tw-gradient-from-position: ; --tw-gradient-via-position: ; --tw-gradient-to-position: ; --tw-ordinal: ; --tw-slashed-zero: ; --tw-numeric-figure: ; --tw-numeric-spacing: ; --tw-numeric-fraction: ; --tw-ring-inset: ; --tw-ring-offset-width: 0px; --tw-ring-offset-color: #fff; --tw-ring-color: rgb(59 130 246/0.5); --tw-ring-offset-shadow: 0 0 #0000; --tw-ring-shadow: 0 0 #0000; --tw-shadow: 0 0 #0000; --tw-shadow-colored: 0 0 #0000; --tw-blur: ; --tw-brightness: ; --tw-contrast: ; --tw-grayscale: ; --tw-hue-rotate: ; --tw-invert: ; --tw-saturate: ; --tw-sepia: ; --tw-drop-shadow: ; --tw-backdrop-blur: ; --tw-backdrop-brightness: ; --tw-backdrop-contrast: ; --tw-backdrop-grayscale: ; --tw-backdrop-hue-rotate: ; --tw-backdrop-invert: ; --tw-backdrop-opacity: ; --tw-backdrop-saturate: ; --tw-backdrop-sepia: ; --tw-contain-size: ; --tw-contain-layout: ; --tw-contain-paint: ; --tw-contain-style: ; color: oklch(0.304 0.04 213.681); font-family: fkGroteskNeue, &amp;quot;fkGroteskNeue Fallback&amp;quot;, ui-sans-serif, system-ui, -apple-system, BlinkMacSystemFont, &amp;quot;Segoe UI&amp;quot;, Roboto, &amp;quot;Helvetica Neue&amp;quot;, Arial, &amp;quot;Noto Sans&amp;quot;, sans-serif, &amp;quot;Apple Color Emoji&amp;quot;, &amp;quot;Segoe UI Emoji&amp;quot;, &amp;quot;Segoe UI Symbol&amp;quot;, &amp;quot;Noto Color Emoji&amp;quot;; font-size: 14px; text-align: start; background-color: oklch(0.99 0.004 106.471);&quot;&gt;Inventory&lt;/span&gt;" style="rounded=0;whiteSpace=wrap;html=1;" vertex="1" parent="1">
          <mxGeometry x="900" y="120" width="120" height="60" as="geometry" />
        </mxCell>
        <mxCell id="Ag48U4sQw-ucjDmq0Y9a-28" value="&lt;span style=&quot;box-sizing: border-box; border: 0px solid rgb(229, 231, 235); scrollbar-color: auto; scrollbar-width: auto; --tw-border-spacing-x: 0; --tw-border-spacing-y: 0; --tw-translate-x: 0; --tw-translate-y: 0; --tw-rotate: 0; --tw-skew-x: 0; --tw-skew-y: 0; --tw-scale-x: 1; --tw-scale-y: 1; --tw-pan-x: ; --tw-pan-y: ; --tw-pinch-zoom: ; --tw-scroll-snap-strictness: proximity; --tw-gradient-from-position: ; --tw-gradient-via-position: ; --tw-gradient-to-position: ; --tw-ordinal: ; --tw-slashed-zero: ; --tw-numeric-figure: ; --tw-numeric-spacing: ; --tw-numeric-fraction: ; --tw-ring-inset: ; --tw-ring-offset-width: 0px; --tw-ring-offset-color: #fff; --tw-ring-color: rgb(59 130 246/0.5); --tw-ring-offset-shadow: 0 0 #0000; --tw-ring-shadow: 0 0 #0000; --tw-shadow: 0 0 #0000; --tw-shadow-colored: 0 0 #0000; --tw-blur: ; --tw-brightness: ; --tw-contrast: ; --tw-grayscale: ; --tw-hue-rotate: ; --tw-invert: ; --tw-saturate: ; --tw-sepia: ; --tw-drop-shadow: ; --tw-backdrop-blur: ; --tw-backdrop-brightness: ; --tw-backdrop-contrast: ; --tw-backdrop-grayscale: ; --tw-backdrop-hue-rotate: ; --tw-backdrop-invert: ; --tw-backdrop-opacity: ; --tw-backdrop-saturate: ; --tw-backdrop-sepia: ; --tw-contain-size: ; --tw-contain-layout: ; --tw-contain-paint: ; --tw-contain-style: ; color: oklch(0.304 0.04 213.681); font-family: fkGroteskNeue, &amp;quot;fkGroteskNeue Fallback&amp;quot;, ui-sans-serif, system-ui, -apple-system, BlinkMacSystemFont, &amp;quot;Segoe UI&amp;quot;, Roboto, &amp;quot;Helvetica Neue&amp;quot;, Arial, &amp;quot;Noto Sans&amp;quot;, sans-serif, &amp;quot;Apple Color Emoji&amp;quot;, &amp;quot;Segoe UI Emoji&amp;quot;, &amp;quot;Segoe UI Symbol&amp;quot;, &amp;quot;Noto Color Emoji&amp;quot;; font-size: 14px; text-align: start; background-color: oklch(0.99 0.004 106.471);&quot;&gt;User&lt;/span&gt;" style="rounded=0;whiteSpace=wrap;html=1;" vertex="1" parent="1">
          <mxGeometry x="900" y="30" width="120" height="60" as="geometry" />
        </mxCell>
        <mxCell id="Ag48U4sQw-ucjDmq0Y9a-29" value="Pharmacy" style="rounded=0;whiteSpace=wrap;html=1;" vertex="1" parent="1">
          <mxGeometry x="50" y="420" width="120" height="60" as="geometry" />
        </mxCell>
        <mxCell id="Ag48U4sQw-ucjDmq0Y9a-30" value="&lt;span style=&quot;box-sizing: border-box; border: 0px solid rgb(229, 231, 235); scrollbar-color: auto; scrollbar-width: auto; --tw-border-spacing-x: 0; --tw-border-spacing-y: 0; --tw-translate-x: 0; --tw-translate-y: 0; --tw-rotate: 0; --tw-skew-x: 0; --tw-skew-y: 0; --tw-scale-x: 1; --tw-scale-y: 1; --tw-pan-x: ; --tw-pan-y: ; --tw-pinch-zoom: ; --tw-scroll-snap-strictness: proximity; --tw-gradient-from-position: ; --tw-gradient-via-position: ; --tw-gradient-to-position: ; --tw-ordinal: ; --tw-slashed-zero: ; --tw-numeric-figure: ; --tw-numeric-spacing: ; --tw-numeric-fraction: ; --tw-ring-inset: ; --tw-ring-offset-width: 0px; --tw-ring-offset-color: #fff; --tw-ring-color: rgb(59 130 246/0.5); --tw-ring-offset-shadow: 0 0 #0000; --tw-ring-shadow: 0 0 #0000; --tw-shadow: 0 0 #0000; --tw-shadow-colored: 0 0 #0000; --tw-blur: ; --tw-brightness: ; --tw-contrast: ; --tw-grayscale: ; --tw-hue-rotate: ; --tw-invert: ; --tw-saturate: ; --tw-sepia: ; --tw-drop-shadow: ; --tw-backdrop-blur: ; --tw-backdrop-brightness: ; --tw-backdrop-contrast: ; --tw-backdrop-grayscale: ; --tw-backdrop-hue-rotate: ; --tw-backdrop-invert: ; --tw-backdrop-opacity: ; --tw-backdrop-saturate: ; --tw-backdrop-sepia: ; --tw-contain-size: ; --tw-contain-layout: ; --tw-contain-paint: ; --tw-contain-style: ; color: oklch(0.304 0.04 213.681); font-family: fkGroteskNeue, &amp;quot;fkGroteskNeue Fallback&amp;quot;, ui-sans-serif, system-ui, -apple-system, BlinkMacSystemFont, &amp;quot;Segoe UI&amp;quot;, Roboto, &amp;quot;Helvetica Neue&amp;quot;, Arial, &amp;quot;Noto Sans&amp;quot;, sans-serif, &amp;quot;Apple Color Emoji&amp;quot;, &amp;quot;Segoe UI Emoji&amp;quot;, &amp;quot;Segoe UI Symbol&amp;quot;, &amp;quot;Noto Color Emoji&amp;quot;; font-size: 14px; text-align: start; background-color: oklch(0.99 0.004 106.471);&quot;&gt;LabOrder&lt;/span&gt;" style="rounded=0;whiteSpace=wrap;html=1;" vertex="1" parent="1">
          <mxGeometry x="280" y="350" width="120" height="60" as="geometry" />
        </mxCell>
        <mxCell id="Ag48U4sQw-ucjDmq0Y9a-31" value="&lt;span style=&quot;box-sizing: border-box; border: 0px solid rgb(229, 231, 235); scrollbar-color: auto; scrollbar-width: auto; --tw-border-spacing-x: 0; --tw-border-spacing-y: 0; --tw-translate-x: 0; --tw-translate-y: 0; --tw-rotate: 0; --tw-skew-x: 0; --tw-skew-y: 0; --tw-scale-x: 1; --tw-scale-y: 1; --tw-pan-x: ; --tw-pan-y: ; --tw-pinch-zoom: ; --tw-scroll-snap-strictness: proximity; --tw-gradient-from-position: ; --tw-gradient-via-position: ; --tw-gradient-to-position: ; --tw-ordinal: ; --tw-slashed-zero: ; --tw-numeric-figure: ; --tw-numeric-spacing: ; --tw-numeric-fraction: ; --tw-ring-inset: ; --tw-ring-offset-width: 0px; --tw-ring-offset-color: #fff; --tw-ring-color: rgb(59 130 246/0.5); --tw-ring-offset-shadow: 0 0 #0000; --tw-ring-shadow: 0 0 #0000; --tw-shadow: 0 0 #0000; --tw-shadow-colored: 0 0 #0000; --tw-blur: ; --tw-brightness: ; --tw-contrast: ; --tw-grayscale: ; --tw-hue-rotate: ; --tw-invert: ; --tw-saturate: ; --tw-sepia: ; --tw-drop-shadow: ; --tw-backdrop-blur: ; --tw-backdrop-brightness: ; --tw-backdrop-contrast: ; --tw-backdrop-grayscale: ; --tw-backdrop-hue-rotate: ; --tw-backdrop-invert: ; --tw-backdrop-opacity: ; --tw-backdrop-saturate: ; --tw-backdrop-sepia: ; --tw-contain-size: ; --tw-contain-layout: ; --tw-contain-paint: ; --tw-contain-style: ; color: oklch(0.304 0.04 213.681); font-family: fkGroteskNeue, &amp;quot;fkGroteskNeue Fallback&amp;quot;, ui-sans-serif, system-ui, -apple-system, BlinkMacSystemFont, &amp;quot;Segoe UI&amp;quot;, Roboto, &amp;quot;Helvetica Neue&amp;quot;, Arial, &amp;quot;Noto Sans&amp;quot;, sans-serif, &amp;quot;Apple Color Emoji&amp;quot;, &amp;quot;Segoe UI Emoji&amp;quot;, &amp;quot;Segoe UI Symbol&amp;quot;, &amp;quot;Noto Color Emoji&amp;quot;; font-size: 14px; text-align: start; background-color: oklch(0.99 0.004 106.471);&quot;&gt;LabOrderID&lt;/span&gt;" style="ellipse;whiteSpace=wrap;html=1;" vertex="1" parent="1">
          <mxGeometry x="490" y="500" width="120" height="80" as="geometry" />
        </mxCell>
        <mxCell id="Ag48U4sQw-ucjDmq0Y9a-32" value="&lt;span style=&quot;box-sizing: border-box; border: 0px solid rgb(229, 231, 235); scrollbar-color: auto; scrollbar-width: auto; --tw-border-spacing-x: 0; --tw-border-spacing-y: 0; --tw-translate-x: 0; --tw-translate-y: 0; --tw-rotate: 0; --tw-skew-x: 0; --tw-skew-y: 0; --tw-scale-x: 1; --tw-scale-y: 1; --tw-pan-x: ; --tw-pan-y: ; --tw-pinch-zoom: ; --tw-scroll-snap-strictness: proximity; --tw-gradient-from-position: ; --tw-gradient-via-position: ; --tw-gradient-to-position: ; --tw-ordinal: ; --tw-slashed-zero: ; --tw-numeric-figure: ; --tw-numeric-spacing: ; --tw-numeric-fraction: ; --tw-ring-inset: ; --tw-ring-offset-width: 0px; --tw-ring-offset-color: #fff; --tw-ring-color: rgb(59 130 246/0.5); --tw-ring-offset-shadow: 0 0 #0000; --tw-ring-shadow: 0 0 #0000; --tw-shadow: 0 0 #0000; --tw-shadow-colored: 0 0 #0000; --tw-blur: ; --tw-brightness: ; --tw-contrast: ; --tw-grayscale: ; --tw-hue-rotate: ; --tw-invert: ; --tw-saturate: ; --tw-sepia: ; --tw-drop-shadow: ; --tw-backdrop-blur: ; --tw-backdrop-brightness: ; --tw-backdrop-contrast: ; --tw-backdrop-grayscale: ; --tw-backdrop-hue-rotate: ; --tw-backdrop-invert: ; --tw-backdrop-opacity: ; --tw-backdrop-saturate: ; --tw-backdrop-sepia: ; --tw-contain-size: ; --tw-contain-layout: ; --tw-contain-paint: ; --tw-contain-style: ; color: oklch(0.304 0.04 213.681); font-family: fkGroteskNeue, &amp;quot;fkGroteskNeue Fallback&amp;quot;, ui-sans-serif, system-ui, -apple-system, BlinkMacSystemFont, &amp;quot;Segoe UI&amp;quot;, Roboto, &amp;quot;Helvetica Neue&amp;quot;, Arial, &amp;quot;Noto Sans&amp;quot;, sans-serif, &amp;quot;Apple Color Emoji&amp;quot;, &amp;quot;Segoe UI Emoji&amp;quot;, &amp;quot;Segoe UI Symbol&amp;quot;, &amp;quot;Noto Color Emoji&amp;quot;; font-size: 14px; text-align: start; background-color: oklch(0.99 0.004 106.471);&quot;&gt;LabTestID&lt;/span&gt;" style="ellipse;whiteSpace=wrap;html=1;" vertex="1" parent="1">
          <mxGeometry x="-170" y="700" width="120" height="80" as="geometry" />
        </mxCell>
        <mxCell id="Ag48U4sQw-ucjDmq0Y9a-33" value="&lt;span style=&quot;box-sizing: border-box; border: 0px solid rgb(229, 231, 235); scrollbar-color: auto; scrollbar-width: auto; --tw-border-spacing-x: 0; --tw-border-spacing-y: 0; --tw-translate-x: 0; --tw-translate-y: 0; --tw-rotate: 0; --tw-skew-x: 0; --tw-skew-y: 0; --tw-scale-x: 1; --tw-scale-y: 1; --tw-pan-x: ; --tw-pan-y: ; --tw-pinch-zoom: ; --tw-scroll-snap-strictness: proximity; --tw-gradient-from-position: ; --tw-gradient-via-position: ; --tw-gradient-to-position: ; --tw-ordinal: ; --tw-slashed-zero: ; --tw-numeric-figure: ; --tw-numeric-spacing: ; --tw-numeric-fraction: ; --tw-ring-inset: ; --tw-ring-offset-width: 0px; --tw-ring-offset-color: #fff; --tw-ring-color: rgb(59 130 246/0.5); --tw-ring-offset-shadow: 0 0 #0000; --tw-ring-shadow: 0 0 #0000; --tw-shadow: 0 0 #0000; --tw-shadow-colored: 0 0 #0000; --tw-blur: ; --tw-brightness: ; --tw-contrast: ; --tw-grayscale: ; --tw-hue-rotate: ; --tw-invert: ; --tw-saturate: ; --tw-sepia: ; --tw-drop-shadow: ; --tw-backdrop-blur: ; --tw-backdrop-brightness: ; --tw-backdrop-contrast: ; --tw-backdrop-grayscale: ; --tw-backdrop-hue-rotate: ; --tw-backdrop-invert: ; --tw-backdrop-opacity: ; --tw-backdrop-saturate: ; --tw-backdrop-sepia: ; --tw-contain-size: ; --tw-contain-layout: ; --tw-contain-paint: ; --tw-contain-style: ; color: oklch(0.304 0.04 213.681); font-family: fkGroteskNeue, &amp;quot;fkGroteskNeue Fallback&amp;quot;, ui-sans-serif, system-ui, -apple-system, BlinkMacSystemFont, &amp;quot;Segoe UI&amp;quot;, Roboto, &amp;quot;Helvetica Neue&amp;quot;, Arial, &amp;quot;Noto Sans&amp;quot;, sans-serif, &amp;quot;Apple Color Emoji&amp;quot;, &amp;quot;Segoe UI Emoji&amp;quot;, &amp;quot;Segoe UI Symbol&amp;quot;, &amp;quot;Noto Color Emoji&amp;quot;; font-size: 14px; text-align: start; background-color: oklch(0.99 0.004 106.471);&quot;&gt;MedicineID&lt;/span&gt;" style="ellipse;whiteSpace=wrap;html=1;" vertex="1" parent="1">
          <mxGeometry x="-170" y="600" width="120" height="80" as="geometry" />
        </mxCell>
        <mxCell id="Ag48U4sQw-ucjDmq0Y9a-36" value="" style="ellipse;whiteSpace=wrap;html=1;" vertex="1" parent="1">
          <mxGeometry x="280" y="-20" width="120" height="80" as="geometry" />
        </mxCell>
        <mxCell id="Ag48U4sQw-ucjDmq0Y9a-37" value="Patient_history" style="ellipse;whiteSpace=wrap;html=1;" vertex="1" parent="1">
          <mxGeometry x="-480" y="-325" width="120" height="80" as="geometry" />
        </mxCell>
        <mxCell id="Ag48U4sQw-ucjDmq0Y9a-48" value="Patient_ID" style="ellipse;whiteSpace=wrap;html=1;" vertex="1" parent="1">
          <mxGeometry x="-350" y="-270" width="120" height="80" as="geometry" />
        </mxCell>
        <mxCell id="Ag48U4sQw-ucjDmq0Y9a-49" value="Patient_Name" style="ellipse;whiteSpace=wrap;html=1;" vertex="1" parent="1">
          <mxGeometry x="-180" y="-590" width="120" height="80" as="geometry" />
        </mxCell>
        <mxCell id="Ag48U4sQw-ucjDmq0Y9a-50" value="Patient_Gender" style="ellipse;whiteSpace=wrap;html=1;" vertex="1" parent="1">
          <mxGeometry x="-190" y="-310" width="120" height="80" as="geometry" />
        </mxCell>
        <mxCell id="Ag48U4sQw-ucjDmq0Y9a-51" value="Patient_Address" style="ellipse;whiteSpace=wrap;html=1;" vertex="1" parent="1">
          <mxGeometry x="-485" y="-600" width="120" height="80" as="geometry" />
        </mxCell>
        <mxCell id="Ag48U4sQw-ucjDmq0Y9a-52" value="Patient_Age" style="ellipse;whiteSpace=wrap;html=1;" vertex="1" parent="1">
          <mxGeometry x="-350" y="-640" width="120" height="80" as="geometry" />
        </mxCell>
        <mxCell id="Ag48U4sQw-ucjDmq0Y9a-70" style="edgeStyle=orthogonalEdgeStyle;rounded=0;orthogonalLoop=1;jettySize=auto;html=1;entryX=0;entryY=0.5;entryDx=0;entryDy=0;" edge="1" parent="1" source="Ag48U4sQw-ucjDmq0Y9a-54" target="Ag48U4sQw-ucjDmq0Y9a-69">
          <mxGeometry relative="1" as="geometry" />
        </mxCell>
        <mxCell id="Ag48U4sQw-ucjDmq0Y9a-54" value="Registration" style="rounded=0;whiteSpace=wrap;html=1;shape=rhombus;perimeter=rhombusPerimeter;" vertex="1" parent="1">
          <mxGeometry x="-60" y="-440" width="120" height="60" as="geometry" />
        </mxCell>
        <mxCell id="Ag48U4sQw-ucjDmq0Y9a-89" style="edgeStyle=orthogonalEdgeStyle;rounded=0;orthogonalLoop=1;jettySize=auto;html=1;entryX=0;entryY=0.5;entryDx=0;entryDy=0;" edge="1" parent="1" source="Ag48U4sQw-ucjDmq0Y9a-91" target="Ag48U4sQw-ucjDmq0Y9a-6">
          <mxGeometry relative="1" as="geometry">
            <mxPoint x="1012.0511568509615" y="-410" as="targetPoint" />
          </mxGeometry>
        </mxCell>
        <mxCell id="Ag48U4sQw-ucjDmq0Y9a-55" value="Appointment" style="rounded=0;whiteSpace=wrap;html=1;" vertex="1" parent="1">
          <mxGeometry x="630" y="-440" width="120" height="60" as="geometry" />
        </mxCell>
        <mxCell id="Ag48U4sQw-ucjDmq0Y9a-56" value="Appointment_Status" style="ellipse;whiteSpace=wrap;html=1;" vertex="1" parent="1">
          <mxGeometry x="560" y="-320" width="120" height="80" as="geometry" />
        </mxCell>
        <mxCell id="Ag48U4sQw-ucjDmq0Y9a-57" value="Appointment_ID" style="ellipse;whiteSpace=wrap;html=1;" vertex="1" parent="1">
          <mxGeometry x="630" y="-670" width="120" height="80" as="geometry" />
        </mxCell>
        <mxCell id="Ag48U4sQw-ucjDmq0Y9a-58" value="Book_Appointment" style="ellipse;whiteSpace=wrap;html=1;" vertex="1" parent="1">
          <mxGeometry x="550" y="-580" width="120" height="80" as="geometry" />
        </mxCell>
        <mxCell id="Ag48U4sQw-ucjDmq0Y9a-61" value="" style="endArrow=none;html=1;rounded=0;entryX=0.5;entryY=1;entryDx=0;entryDy=0;" edge="1" parent="1" target="Ag48U4sQw-ucjDmq0Y9a-49">
          <mxGeometry width="50" height="50" relative="1" as="geometry">
            <mxPoint x="-290" y="-440" as="sourcePoint" />
            <mxPoint x="350" y="-200" as="targetPoint" />
          </mxGeometry>
        </mxCell>
        <mxCell id="Ag48U4sQw-ucjDmq0Y9a-64" value="" style="endArrow=none;html=1;rounded=0;exitX=0.5;exitY=0;exitDx=0;exitDy=0;" edge="1" parent="1" source="Ag48U4sQw-ucjDmq0Y9a-3" target="Ag48U4sQw-ucjDmq0Y9a-52">
          <mxGeometry width="50" height="50" relative="1" as="geometry">
            <mxPoint y="-440" as="sourcePoint" />
            <mxPoint x="60" y="-500" as="targetPoint" />
          </mxGeometry>
        </mxCell>
        <mxCell id="Ag48U4sQw-ucjDmq0Y9a-65" value="" style="endArrow=none;html=1;rounded=0;exitX=0.576;exitY=-0.002;exitDx=0;exitDy=0;exitPerimeter=0;entryX=0.5;entryY=1;entryDx=0;entryDy=0;" edge="1" parent="1" source="Ag48U4sQw-ucjDmq0Y9a-48" target="Ag48U4sQw-ucjDmq0Y9a-3">
          <mxGeometry width="50" height="50" relative="1" as="geometry">
            <mxPoint x="-50" y="-330" as="sourcePoint" />
            <mxPoint y="-380" as="targetPoint" />
          </mxGeometry>
        </mxCell>
        <mxCell id="Ag48U4sQw-ucjDmq0Y9a-66" value="" style="endArrow=none;html=1;rounded=0;exitX=0.396;exitY=-0.021;exitDx=0;exitDy=0;exitPerimeter=0;entryX=0.5;entryY=1;entryDx=0;entryDy=0;" edge="1" parent="1" source="Ag48U4sQw-ucjDmq0Y9a-37" target="Ag48U4sQw-ucjDmq0Y9a-3">
          <mxGeometry width="50" height="50" relative="1" as="geometry">
            <mxPoint x="300" y="-150" as="sourcePoint" />
            <mxPoint y="-380" as="targetPoint" />
          </mxGeometry>
        </mxCell>
        <mxCell id="Ag48U4sQw-ucjDmq0Y9a-67" value="" style="endArrow=none;html=1;rounded=0;exitX=0.5;exitY=0;exitDx=0;exitDy=0;" edge="1" parent="1" source="Ag48U4sQw-ucjDmq0Y9a-3" target="Ag48U4sQw-ucjDmq0Y9a-51">
          <mxGeometry width="50" height="50" relative="1" as="geometry">
            <mxPoint y="-440" as="sourcePoint" />
            <mxPoint x="100" y="-450" as="targetPoint" />
          </mxGeometry>
        </mxCell>
        <mxCell id="Ag48U4sQw-ucjDmq0Y9a-68" value="" style="endArrow=none;html=1;rounded=0;exitX=0.5;exitY=0;exitDx=0;exitDy=0;entryX=0.5;entryY=1;entryDx=0;entryDy=0;" edge="1" parent="1" source="Ag48U4sQw-ucjDmq0Y9a-50" target="Ag48U4sQw-ucjDmq0Y9a-3">
          <mxGeometry width="50" height="50" relative="1" as="geometry">
            <mxPoint x="130" y="-310" as="sourcePoint" />
            <mxPoint y="-380" as="targetPoint" />
          </mxGeometry>
        </mxCell>
        <mxCell id="Ag48U4sQw-ucjDmq0Y9a-71" style="edgeStyle=orthogonalEdgeStyle;rounded=0;orthogonalLoop=1;jettySize=auto;html=1;exitX=1;exitY=0.5;exitDx=0;exitDy=0;entryX=0;entryY=0.5;entryDx=0;entryDy=0;" edge="1" parent="1" source="Ag48U4sQw-ucjDmq0Y9a-75" target="Ag48U4sQw-ucjDmq0Y9a-55">
          <mxGeometry relative="1" as="geometry" />
        </mxCell>
        <mxCell id="Ag48U4sQw-ucjDmq0Y9a-69" value="Registration" style="whiteSpace=wrap;html=1;rounded=0;" vertex="1" parent="1">
          <mxGeometry x="210" y="-450" width="80" height="80" as="geometry" />
        </mxCell>
        <mxCell id="Ag48U4sQw-ucjDmq0Y9a-72" value="Registration_Date" style="ellipse;whiteSpace=wrap;html=1;" vertex="1" parent="1">
          <mxGeometry x="260" y="-560" width="120" height="80" as="geometry" />
        </mxCell>
        <mxCell id="Ag48U4sQw-ucjDmq0Y9a-73" value="Registration_ID" style="ellipse;whiteSpace=wrap;html=1;" vertex="1" parent="1">
          <mxGeometry x="120" y="-560" width="120" height="80" as="geometry" />
        </mxCell>
        <mxCell id="Ag48U4sQw-ucjDmq0Y9a-74" value="" style="edgeStyle=orthogonalEdgeStyle;rounded=0;orthogonalLoop=1;jettySize=auto;html=1;exitX=1;exitY=0.5;exitDx=0;exitDy=0;entryX=0;entryY=0.5;entryDx=0;entryDy=0;" edge="1" parent="1" source="Ag48U4sQw-ucjDmq0Y9a-69" target="Ag48U4sQw-ucjDmq0Y9a-75">
          <mxGeometry relative="1" as="geometry">
            <mxPoint x="350" y="-410" as="sourcePoint" />
            <mxPoint x="630" y="-410" as="targetPoint" />
          </mxGeometry>
        </mxCell>
        <mxCell id="Ag48U4sQw-ucjDmq0Y9a-75" value="Book&amp;nbsp;" style="rhombus;whiteSpace=wrap;html=1;" vertex="1" parent="1">
          <mxGeometry x="430" y="-450" width="80" height="80" as="geometry" />
        </mxCell>
        <mxCell id="Ag48U4sQw-ucjDmq0Y9a-78" value="" style="endArrow=none;html=1;rounded=0;exitX=0.5;exitY=0;exitDx=0;exitDy=0;" edge="1" parent="1" source="Ag48U4sQw-ucjDmq0Y9a-55">
          <mxGeometry width="50" height="50" relative="1" as="geometry">
            <mxPoint x="560" y="-450" as="sourcePoint" />
            <mxPoint x="610" y="-500" as="targetPoint" />
          </mxGeometry>
        </mxCell>
        <mxCell id="Ag48U4sQw-ucjDmq0Y9a-79" value="" style="endArrow=none;html=1;rounded=0;exitX=0.5;exitY=0;exitDx=0;exitDy=0;" edge="1" parent="1" source="Ag48U4sQw-ucjDmq0Y9a-56">
          <mxGeometry width="50" height="50" relative="1" as="geometry">
            <mxPoint x="640" y="-330" as="sourcePoint" />
            <mxPoint x="690" y="-380" as="targetPoint" />
          </mxGeometry>
        </mxCell>
        <mxCell id="Ag48U4sQw-ucjDmq0Y9a-80" value="" style="endArrow=none;html=1;rounded=0;entryX=0.5;entryY=1;entryDx=0;entryDy=0;exitX=0.5;exitY=0;exitDx=0;exitDy=0;" edge="1" parent="1" source="Ag48U4sQw-ucjDmq0Y9a-55" target="Ag48U4sQw-ucjDmq0Y9a-57">
          <mxGeometry width="50" height="50" relative="1" as="geometry">
            <mxPoint x="660" y="-430" as="sourcePoint" />
            <mxPoint x="710" y="-480" as="targetPoint" />
          </mxGeometry>
        </mxCell>
        <mxCell id="Ag48U4sQw-ucjDmq0Y9a-81" value="Patient_Username" style="ellipse;whiteSpace=wrap;html=1;" vertex="1" parent="1">
          <mxGeometry x="100" y="-350" width="120" height="80" as="geometry" />
        </mxCell>
        <mxCell id="Ag48U4sQw-ucjDmq0Y9a-82" value="Patient_Password" style="ellipse;whiteSpace=wrap;html=1;" vertex="1" parent="1">
          <mxGeometry x="260" y="-350" width="120" height="80" as="geometry" />
        </mxCell>
        <mxCell id="Ag48U4sQw-ucjDmq0Y9a-83" value="Patient_Portal" style="ellipse;whiteSpace=wrap;html=1;" vertex="1" parent="1">
          <mxGeometry x="710" y="-320" width="120" height="80" as="geometry" />
        </mxCell>
        <mxCell id="Ag48U4sQw-ucjDmq0Y9a-84" value="" style="endArrow=none;html=1;rounded=0;entryX=0.5;entryY=1;entryDx=0;entryDy=0;" edge="1" parent="1" target="Ag48U4sQw-ucjDmq0Y9a-55">
          <mxGeometry width="50" height="50" relative="1" as="geometry">
            <mxPoint x="765" y="-320" as="sourcePoint" />
            <mxPoint x="815" y="-370" as="targetPoint" />
          </mxGeometry>
        </mxCell>
        <mxCell id="Ag48U4sQw-ucjDmq0Y9a-85" value="Select_Date" style="ellipse;whiteSpace=wrap;html=1;" vertex="1" parent="1">
          <mxGeometry x="760" y="-600" width="120" height="80" as="geometry" />
        </mxCell>
        <mxCell id="Ag48U4sQw-ucjDmq0Y9a-86" value="Select_Time" style="ellipse;whiteSpace=wrap;html=1;" vertex="1" parent="1">
          <mxGeometry x="640" y="-190" width="120" height="80" as="geometry" />
        </mxCell>
        <mxCell id="Ag48U4sQw-ucjDmq0Y9a-87" value="" style="endArrow=none;html=1;rounded=0;entryX=0;entryY=1;entryDx=0;entryDy=0;" edge="1" parent="1" target="Ag48U4sQw-ucjDmq0Y9a-85">
          <mxGeometry width="50" height="50" relative="1" as="geometry">
            <mxPoint x="690" y="-440" as="sourcePoint" />
            <mxPoint x="740" y="-490" as="targetPoint" />
          </mxGeometry>
        </mxCell>
        <mxCell id="Ag48U4sQw-ucjDmq0Y9a-88" value="" style="endArrow=none;html=1;rounded=0;" edge="1" parent="1">
          <mxGeometry width="50" height="50" relative="1" as="geometry">
            <mxPoint x="690" y="-190" as="sourcePoint" />
            <mxPoint x="690" y="-380" as="targetPoint" />
          </mxGeometry>
        </mxCell>
        <mxCell id="Ag48U4sQw-ucjDmq0Y9a-90" value="" style="edgeStyle=orthogonalEdgeStyle;rounded=0;orthogonalLoop=1;jettySize=auto;html=1;entryX=0;entryY=0.5;entryDx=0;entryDy=0;" edge="1" parent="1" source="Ag48U4sQw-ucjDmq0Y9a-55" target="Ag48U4sQw-ucjDmq0Y9a-91">
          <mxGeometry relative="1" as="geometry">
            <mxPoint x="1100" y="-410" as="targetPoint" />
            <mxPoint x="750" y="-410" as="sourcePoint" />
          </mxGeometry>
        </mxCell>
        <mxCell id="Ag48U4sQw-ucjDmq0Y9a-91" value="Data Send To" style="rhombus;whiteSpace=wrap;html=1;" vertex="1" parent="1">
          <mxGeometry x="890" y="-455" width="90" height="90" as="geometry" />
        </mxCell>
        <mxCell id="Ag48U4sQw-ucjDmq0Y9a-92" value="Patient_medical_history" style="ellipse;whiteSpace=wrap;html=1;" vertex="1" parent="1">
          <mxGeometry x="980" y="-330" width="140" height="90" as="geometry" />
        </mxCell>
        <mxCell id="Ag48U4sQw-ucjDmq0Y9a-93" value="Manage_appointments" style="ellipse;whiteSpace=wrap;html=1;" vertex="1" parent="1">
          <mxGeometry x="1135" y="-590" width="140" height="80" as="geometry" />
        </mxCell>
        <mxCell id="Ag48U4sQw-ucjDmq0Y9a-95" value="Doctor_Login" style="ellipse;whiteSpace=wrap;html=1;" vertex="1" parent="1">
          <mxGeometry x="980" y="-590" width="120" height="80" as="geometry" />
        </mxCell>
        <mxCell id="Ag48U4sQw-ucjDmq0Y9a-96" value="Diagnose_patient" style="ellipse;whiteSpace=wrap;html=1;" vertex="1" parent="1">
          <mxGeometry x="1100" y="-240" width="120" height="80" as="geometry" />
        </mxCell>
        <mxCell id="Ag48U4sQw-ucjDmq0Y9a-97" value="" style="endArrow=none;html=1;rounded=0;exitX=0.5;exitY=0;exitDx=0;exitDy=0;" edge="1" parent="1" source="Ag48U4sQw-ucjDmq0Y9a-6">
          <mxGeometry width="50" height="50" relative="1" as="geometry">
            <mxPoint x="990" y="-460" as="sourcePoint" />
            <mxPoint x="1040" y="-510" as="targetPoint" />
          </mxGeometry>
        </mxCell>
        <mxCell id="Ag48U4sQw-ucjDmq0Y9a-98" value="" style="endArrow=none;html=1;rounded=0;exitX=0.5;exitY=0;exitDx=0;exitDy=0;" edge="1" parent="1" source="Ag48U4sQw-ucjDmq0Y9a-6">
          <mxGeometry width="50" height="50" relative="1" as="geometry">
            <mxPoint x="1160" y="-460" as="sourcePoint" />
            <mxPoint x="1210" y="-510" as="targetPoint" />
          </mxGeometry>
        </mxCell>
        <mxCell id="Ag48U4sQw-ucjDmq0Y9a-99" value="" style="endArrow=none;html=1;rounded=0;entryX=0.5;entryY=1;entryDx=0;entryDy=0;exitX=0.5;exitY=0;exitDx=0;exitDy=0;" edge="1" parent="1" source="Ag48U4sQw-ucjDmq0Y9a-92" target="Ag48U4sQw-ucjDmq0Y9a-6">
          <mxGeometry width="50" height="50" relative="1" as="geometry">
            <mxPoint x="1100" y="-300" as="sourcePoint" />
            <mxPoint x="1140" y="-370" as="targetPoint" />
          </mxGeometry>
        </mxCell>
        <mxCell id="Ag48U4sQw-ucjDmq0Y9a-100" value="" style="endArrow=none;html=1;rounded=0;exitX=0.5;exitY=0;exitDx=0;exitDy=0;" edge="1" parent="1" source="Ag48U4sQw-ucjDmq0Y9a-96">
          <mxGeometry width="50" height="50" relative="1" as="geometry">
            <mxPoint x="1250" y="-350" as="sourcePoint" />
            <mxPoint x="1160" y="-380" as="targetPoint" />
          </mxGeometry>
        </mxCell>
        <mxCell id="Ag48U4sQw-ucjDmq0Y9a-101" value="Order_lab_test" style="ellipse;whiteSpace=wrap;html=1;" vertex="1" parent="1">
          <mxGeometry x="1220" y="-300" width="120" height="80" as="geometry" />
        </mxCell>
        <mxCell id="Ag48U4sQw-ucjDmq0Y9a-102" value="" style="endArrow=none;html=1;rounded=0;entryX=0.5;entryY=1;entryDx=0;entryDy=0;exitX=0.5;exitY=0;exitDx=0;exitDy=0;" edge="1" parent="1" source="Ag48U4sQw-ucjDmq0Y9a-101" target="Ag48U4sQw-ucjDmq0Y9a-6">
          <mxGeometry width="50" height="50" relative="1" as="geometry">
            <mxPoint x="1280" y="-310" as="sourcePoint" />
            <mxPoint x="1330" y="-360" as="targetPoint" />
          </mxGeometry>
        </mxCell>
      </root>
    </mxGraphModel>
  </diagram>
  <diagram id="wO4upfnPQQ3eXoye_YQC" name="Page-4">
    <mxGraphModel dx="2278" dy="2129" grid="1" gridSize="10" guides="1" tooltips="1" connect="1" arrows="1" fold="1" page="1" pageScale="1" pageWidth="850" pageHeight="1100" math="0" shadow="0">
      <root>
        <mxCell id="0" />
        <mxCell id="1" parent="0" />
        <mxCell id="vdaIrtTrMSJAW5s-TWBo-2" style="edgeStyle=orthogonalEdgeStyle;rounded=0;orthogonalLoop=1;jettySize=auto;html=1;" edge="1" parent="1" source="DMNtIWhjdlfI8IVSeMIg-94">
          <mxGeometry relative="1" as="geometry">
            <mxPoint x="735" y="410" as="targetPoint" />
          </mxGeometry>
        </mxCell>
        <mxCell id="vdaIrtTrMSJAW5s-TWBo-3" style="edgeStyle=orthogonalEdgeStyle;rounded=0;orthogonalLoop=1;jettySize=auto;html=1;entryX=0.5;entryY=0;entryDx=0;entryDy=0;entryPerimeter=0;" edge="1" parent="1" source="vdaIrtTrMSJAW5s-TWBo-1" target="DMNtIWhjdlfI8IVSeMIg-444">
          <mxGeometry relative="1" as="geometry">
            <mxPoint x="1030" y="-80" as="targetPoint" />
          </mxGeometry>
        </mxCell>
        <mxCell id="DMNtIWhjdlfI8IVSeMIg-43" style="edgeStyle=orthogonalEdgeStyle;rounded=0;orthogonalLoop=1;jettySize=auto;html=1;entryX=0.5;entryY=0;entryDx=0;entryDy=0;entryPerimeter=0;" edge="1" parent="1" source="vdaIrtTrMSJAW5s-TWBo-1" target="DMNtIWhjdlfI8IVSeMIg-466">
          <mxGeometry relative="1" as="geometry">
            <mxPoint x="1659.999999999999" y="-90" as="targetPoint" />
          </mxGeometry>
        </mxCell>
        <mxCell id="DMNtIWhjdlfI8IVSeMIg-44" style="edgeStyle=orthogonalEdgeStyle;rounded=0;orthogonalLoop=1;jettySize=auto;html=1;entryX=0.583;entryY=0;entryDx=0;entryDy=0;entryPerimeter=0;" edge="1" parent="1" source="vdaIrtTrMSJAW5s-TWBo-1" target="DMNtIWhjdlfI8IVSeMIg-478">
          <mxGeometry relative="1" as="geometry">
            <mxPoint x="2140" y="-90" as="targetPoint" />
          </mxGeometry>
        </mxCell>
        <mxCell id="DMNtIWhjdlfI8IVSeMIg-490" style="edgeStyle=orthogonalEdgeStyle;rounded=0;orthogonalLoop=1;jettySize=auto;html=1;entryX=0.5;entryY=0;entryDx=0;entryDy=0;" edge="1" parent="1" source="vdaIrtTrMSJAW5s-TWBo-1" target="DMNtIWhjdlfI8IVSeMIg-454">
          <mxGeometry relative="1" as="geometry" />
        </mxCell>
        <mxCell id="vdaIrtTrMSJAW5s-TWBo-1" value="Login" style="ellipse;whiteSpace=wrap;html=1;" vertex="1" parent="1">
          <mxGeometry x="970" y="-290" width="120" height="80" as="geometry" />
        </mxCell>
        <mxCell id="DMNtIWhjdlfI8IVSeMIg-49" style="edgeStyle=orthogonalEdgeStyle;rounded=0;orthogonalLoop=1;jettySize=auto;html=1;exitX=0.5;exitY=1;exitDx=0;exitDy=0;" edge="1" parent="1" source="vdaIrtTrMSJAW5s-TWBo-1" target="vdaIrtTrMSJAW5s-TWBo-1">
          <mxGeometry relative="1" as="geometry" />
        </mxCell>
        <mxCell id="DMNtIWhjdlfI8IVSeMIg-95" value="" style="edgeStyle=orthogonalEdgeStyle;rounded=0;orthogonalLoop=1;jettySize=auto;html=1;" edge="1" parent="1" source="vdaIrtTrMSJAW5s-TWBo-1" target="DMNtIWhjdlfI8IVSeMIg-94">
          <mxGeometry relative="1" as="geometry">
            <mxPoint x="-485" y="120" as="targetPoint" />
            <mxPoint x="970" y="-250" as="sourcePoint" />
          </mxGeometry>
        </mxCell>
        <mxCell id="DMNtIWhjdlfI8IVSeMIg-350" style="edgeStyle=orthogonalEdgeStyle;rounded=0;orthogonalLoop=1;jettySize=auto;html=1;" edge="1" parent="1" source="DMNtIWhjdlfI8IVSeMIg-362" target="DMNtIWhjdlfI8IVSeMIg-363">
          <mxGeometry relative="1" as="geometry" />
        </mxCell>
        <mxCell id="DMNtIWhjdlfI8IVSeMIg-351" style="edgeStyle=orthogonalEdgeStyle;rounded=0;orthogonalLoop=1;jettySize=auto;html=1;entryX=0.5;entryY=0;entryDx=0;entryDy=0;" edge="1" parent="1" source="DMNtIWhjdlfI8IVSeMIg-362" target="DMNtIWhjdlfI8IVSeMIg-366">
          <mxGeometry relative="1" as="geometry" />
        </mxCell>
        <mxCell id="DMNtIWhjdlfI8IVSeMIg-352" style="edgeStyle=orthogonalEdgeStyle;rounded=0;orthogonalLoop=1;jettySize=auto;html=1;entryX=0.5;entryY=0;entryDx=0;entryDy=0;" edge="1" parent="1" source="DMNtIWhjdlfI8IVSeMIg-362" target="DMNtIWhjdlfI8IVSeMIg-367">
          <mxGeometry relative="1" as="geometry" />
        </mxCell>
        <mxCell id="DMNtIWhjdlfI8IVSeMIg-353" value="" style="edgeStyle=orthogonalEdgeStyle;rounded=0;orthogonalLoop=1;jettySize=auto;html=1;" edge="1" parent="1" source="DMNtIWhjdlfI8IVSeMIg-362" target="DMNtIWhjdlfI8IVSeMIg-369">
          <mxGeometry relative="1" as="geometry" />
        </mxCell>
        <mxCell id="DMNtIWhjdlfI8IVSeMIg-354" value="" style="edgeStyle=orthogonalEdgeStyle;rounded=0;orthogonalLoop=1;jettySize=auto;html=1;" edge="1" parent="1" source="DMNtIWhjdlfI8IVSeMIg-362" target="DMNtIWhjdlfI8IVSeMIg-370">
          <mxGeometry relative="1" as="geometry" />
        </mxCell>
        <mxCell id="DMNtIWhjdlfI8IVSeMIg-355" value="" style="edgeStyle=orthogonalEdgeStyle;rounded=0;orthogonalLoop=1;jettySize=auto;html=1;" edge="1" parent="1" source="DMNtIWhjdlfI8IVSeMIg-362" target="DMNtIWhjdlfI8IVSeMIg-371">
          <mxGeometry relative="1" as="geometry" />
        </mxCell>
        <mxCell id="DMNtIWhjdlfI8IVSeMIg-356" value="" style="edgeStyle=orthogonalEdgeStyle;rounded=0;orthogonalLoop=1;jettySize=auto;html=1;" edge="1" parent="1" source="DMNtIWhjdlfI8IVSeMIg-362" target="DMNtIWhjdlfI8IVSeMIg-372">
          <mxGeometry relative="1" as="geometry" />
        </mxCell>
        <mxCell id="DMNtIWhjdlfI8IVSeMIg-357" value="" style="edgeStyle=orthogonalEdgeStyle;rounded=0;orthogonalLoop=1;jettySize=auto;html=1;" edge="1" parent="1" source="DMNtIWhjdlfI8IVSeMIg-362" target="DMNtIWhjdlfI8IVSeMIg-373">
          <mxGeometry relative="1" as="geometry" />
        </mxCell>
        <mxCell id="DMNtIWhjdlfI8IVSeMIg-358" value="" style="edgeStyle=orthogonalEdgeStyle;rounded=0;orthogonalLoop=1;jettySize=auto;html=1;" edge="1" parent="1" source="DMNtIWhjdlfI8IVSeMIg-362" target="DMNtIWhjdlfI8IVSeMIg-374">
          <mxGeometry relative="1" as="geometry" />
        </mxCell>
        <mxCell id="DMNtIWhjdlfI8IVSeMIg-359" value="" style="edgeStyle=orthogonalEdgeStyle;rounded=0;orthogonalLoop=1;jettySize=auto;html=1;" edge="1" parent="1" source="DMNtIWhjdlfI8IVSeMIg-362" target="DMNtIWhjdlfI8IVSeMIg-375">
          <mxGeometry relative="1" as="geometry" />
        </mxCell>
        <mxCell id="DMNtIWhjdlfI8IVSeMIg-360" value="" style="edgeStyle=orthogonalEdgeStyle;rounded=0;orthogonalLoop=1;jettySize=auto;html=1;" edge="1" parent="1" source="DMNtIWhjdlfI8IVSeMIg-362" target="DMNtIWhjdlfI8IVSeMIg-376">
          <mxGeometry relative="1" as="geometry" />
        </mxCell>
        <mxCell id="DMNtIWhjdlfI8IVSeMIg-361" value="" style="edgeStyle=orthogonalEdgeStyle;rounded=0;orthogonalLoop=1;jettySize=auto;html=1;" edge="1" parent="1" source="DMNtIWhjdlfI8IVSeMIg-362" target="DMNtIWhjdlfI8IVSeMIg-377">
          <mxGeometry relative="1" as="geometry" />
        </mxCell>
        <mxCell id="DMNtIWhjdlfI8IVSeMIg-363" value="View Appointment" style="rounded=0;whiteSpace=wrap;html=1;" vertex="1" parent="1">
          <mxGeometry x="750" y="720" width="120" height="60" as="geometry" />
        </mxCell>
        <mxCell id="DMNtIWhjdlfI8IVSeMIg-364" value="" style="edgeStyle=orthogonalEdgeStyle;rounded=0;orthogonalLoop=1;jettySize=auto;html=1;" edge="1" parent="1" source="DMNtIWhjdlfI8IVSeMIg-362" target="DMNtIWhjdlfI8IVSeMIg-365">
          <mxGeometry relative="1" as="geometry">
            <mxPoint x="705" y="920" as="targetPoint" />
            <mxPoint x="965" y="710" as="sourcePoint" />
          </mxGeometry>
        </mxCell>
        <mxCell id="DMNtIWhjdlfI8IVSeMIg-365" value="Manage Clinic Schedule" style="rounded=0;whiteSpace=wrap;html=1;" vertex="1" parent="1">
          <mxGeometry x="585" y="720" width="120" height="60" as="geometry" />
        </mxCell>
        <mxCell id="DMNtIWhjdlfI8IVSeMIg-366" value="Generate Reports" style="rounded=0;whiteSpace=wrap;html=1;" vertex="1" parent="1">
          <mxGeometry x="915" y="720" width="120" height="60" as="geometry" />
        </mxCell>
        <mxCell id="DMNtIWhjdlfI8IVSeMIg-367" value="AI-Driven Reminders" style="rounded=0;whiteSpace=wrap;html=1;" vertex="1" parent="1">
          <mxGeometry x="1155" y="640" width="120" height="60" as="geometry" />
        </mxCell>
        <mxCell id="DMNtIWhjdlfI8IVSeMIg-368" style="edgeStyle=orthogonalEdgeStyle;rounded=0;orthogonalLoop=1;jettySize=auto;html=1;exitX=0.5;exitY=1;exitDx=0;exitDy=0;" edge="1" parent="1" source="DMNtIWhjdlfI8IVSeMIg-362" target="DMNtIWhjdlfI8IVSeMIg-362">
          <mxGeometry relative="1" as="geometry" />
        </mxCell>
        <mxCell id="DMNtIWhjdlfI8IVSeMIg-369" value="Manage Payrolls" style="whiteSpace=wrap;html=1;rounded=0;" vertex="1" parent="1">
          <mxGeometry x="995" y="640" width="120" height="60" as="geometry" />
        </mxCell>
        <mxCell id="DMNtIWhjdlfI8IVSeMIg-370" value="Add Employee" style="whiteSpace=wrap;html=1;rounded=0;" vertex="1" parent="1">
          <mxGeometry x="235" y="640" width="120" height="60" as="geometry" />
        </mxCell>
        <mxCell id="DMNtIWhjdlfI8IVSeMIg-371" value="Transfer Employee" style="whiteSpace=wrap;html=1;rounded=0;" vertex="1" parent="1">
          <mxGeometry x="305" y="720" width="120" height="60" as="geometry" />
        </mxCell>
        <mxCell id="DMNtIWhjdlfI8IVSeMIg-372" value="Manage Pharmacy" style="whiteSpace=wrap;html=1;rounded=0;" vertex="1" parent="1">
          <mxGeometry x="375" y="640" width="120" height="60" as="geometry" />
        </mxCell>
        <mxCell id="DMNtIWhjdlfI8IVSeMIg-373" value="Manage Reporting" style="whiteSpace=wrap;html=1;rounded=0;" vertex="1" parent="1">
          <mxGeometry x="445" y="720" width="120" height="60" as="geometry" />
        </mxCell>
        <mxCell id="DMNtIWhjdlfI8IVSeMIg-374" value="Mange Medical Records" style="whiteSpace=wrap;html=1;rounded=0;" vertex="1" parent="1">
          <mxGeometry x="515" y="640" width="120" height="60" as="geometry" />
        </mxCell>
        <mxCell id="DMNtIWhjdlfI8IVSeMIg-375" value="Manage Labratory" style="whiteSpace=wrap;html=1;rounded=0;" vertex="1" parent="1">
          <mxGeometry x="665" y="640" width="120" height="60" as="geometry" />
        </mxCell>
        <mxCell id="DMNtIWhjdlfI8IVSeMIg-376" value="Add/Manage Surgical Equipement" style="whiteSpace=wrap;html=1;rounded=0;" vertex="1" parent="1">
          <mxGeometry x="835" y="640" width="120" height="60" as="geometry" />
        </mxCell>
        <mxCell id="DMNtIWhjdlfI8IVSeMIg-377" value="Assign OT" style="whiteSpace=wrap;html=1;rounded=0;" vertex="1" parent="1">
          <mxGeometry x="1075" y="730" width="120" height="60" as="geometry" />
        </mxCell>
        <mxCell id="DMNtIWhjdlfI8IVSeMIg-380" value="" style="edgeStyle=orthogonalEdgeStyle;rounded=0;orthogonalLoop=1;jettySize=auto;html=1;" edge="1" parent="1" source="DMNtIWhjdlfI8IVSeMIg-94" target="DMNtIWhjdlfI8IVSeMIg-362">
          <mxGeometry relative="1" as="geometry">
            <mxPoint x="735" y="410" as="targetPoint" />
            <mxPoint x="735" y="320" as="sourcePoint" />
          </mxGeometry>
        </mxCell>
        <mxCell id="DMNtIWhjdlfI8IVSeMIg-362" value="Admin Dashboard" style="rounded=0;whiteSpace=wrap;html=1;" vertex="1" parent="1">
          <mxGeometry x="675" y="490" width="120" height="60" as="geometry" />
        </mxCell>
        <mxCell id="DMNtIWhjdlfI8IVSeMIg-439" value="" style="edgeStyle=orthogonalEdgeStyle;rounded=0;orthogonalLoop=1;jettySize=auto;html=1;" edge="1" parent="1" source="DMNtIWhjdlfI8IVSeMIg-444" target="DMNtIWhjdlfI8IVSeMIg-445">
          <mxGeometry relative="1" as="geometry" />
        </mxCell>
        <mxCell id="DMNtIWhjdlfI8IVSeMIg-440" value="" style="edgeStyle=orthogonalEdgeStyle;rounded=0;orthogonalLoop=1;jettySize=auto;html=1;" edge="1" parent="1" source="DMNtIWhjdlfI8IVSeMIg-444" target="DMNtIWhjdlfI8IVSeMIg-446">
          <mxGeometry relative="1" as="geometry" />
        </mxCell>
        <mxCell id="DMNtIWhjdlfI8IVSeMIg-441" value="" style="edgeStyle=orthogonalEdgeStyle;rounded=0;orthogonalLoop=1;jettySize=auto;html=1;" edge="1" parent="1" source="DMNtIWhjdlfI8IVSeMIg-444" target="DMNtIWhjdlfI8IVSeMIg-446">
          <mxGeometry relative="1" as="geometry" />
        </mxCell>
        <mxCell id="DMNtIWhjdlfI8IVSeMIg-442" value="" style="edgeStyle=orthogonalEdgeStyle;rounded=0;orthogonalLoop=1;jettySize=auto;html=1;" edge="1" parent="1" source="DMNtIWhjdlfI8IVSeMIg-444" target="DMNtIWhjdlfI8IVSeMIg-447">
          <mxGeometry relative="1" as="geometry" />
        </mxCell>
        <mxCell id="DMNtIWhjdlfI8IVSeMIg-443" value="" style="edgeStyle=orthogonalEdgeStyle;rounded=0;orthogonalLoop=1;jettySize=auto;html=1;" edge="1" parent="1" source="DMNtIWhjdlfI8IVSeMIg-444" target="DMNtIWhjdlfI8IVSeMIg-448">
          <mxGeometry relative="1" as="geometry" />
        </mxCell>
        <mxCell id="DMNtIWhjdlfI8IVSeMIg-444" value="Patient Dashboard" style="rounded=0;whiteSpace=wrap;html=1;" vertex="1" parent="1">
          <mxGeometry x="430" y="50" width="120" height="60" as="geometry" />
        </mxCell>
        <mxCell id="DMNtIWhjdlfI8IVSeMIg-445" value="Book Appointment" style="whiteSpace=wrap;html=1;rounded=0;" vertex="1" parent="1">
          <mxGeometry x="360" y="230" width="120" height="60" as="geometry" />
        </mxCell>
        <mxCell id="DMNtIWhjdlfI8IVSeMIg-446" value="View Profile" style="whiteSpace=wrap;html=1;rounded=0;" vertex="1" parent="1">
          <mxGeometry x="280" y="150" width="120" height="60" as="geometry" />
        </mxCell>
        <mxCell id="DMNtIWhjdlfI8IVSeMIg-447" value="Symptom Assessment Test" style="whiteSpace=wrap;html=1;rounded=0;" vertex="1" parent="1">
          <mxGeometry x="500" y="230" width="120" height="60" as="geometry" />
        </mxCell>
        <mxCell id="DMNtIWhjdlfI8IVSeMIg-448" value="Available Doctors" style="whiteSpace=wrap;html=1;rounded=0;" vertex="1" parent="1">
          <mxGeometry x="580" y="150" width="120" height="60" as="geometry" />
        </mxCell>
        <mxCell id="DMNtIWhjdlfI8IVSeMIg-449" value="" style="edgeStyle=orthogonalEdgeStyle;rounded=0;orthogonalLoop=1;jettySize=auto;html=1;" edge="1" parent="1" source="DMNtIWhjdlfI8IVSeMIg-454" target="DMNtIWhjdlfI8IVSeMIg-456">
          <mxGeometry relative="1" as="geometry" />
        </mxCell>
        <mxCell id="DMNtIWhjdlfI8IVSeMIg-450" value="" style="edgeStyle=orthogonalEdgeStyle;rounded=0;orthogonalLoop=1;jettySize=auto;html=1;" edge="1" parent="1" source="DMNtIWhjdlfI8IVSeMIg-454" target="DMNtIWhjdlfI8IVSeMIg-458">
          <mxGeometry relative="1" as="geometry" />
        </mxCell>
        <mxCell id="DMNtIWhjdlfI8IVSeMIg-451" value="" style="edgeStyle=orthogonalEdgeStyle;rounded=0;orthogonalLoop=1;jettySize=auto;html=1;" edge="1" parent="1" source="DMNtIWhjdlfI8IVSeMIg-454" target="DMNtIWhjdlfI8IVSeMIg-459">
          <mxGeometry relative="1" as="geometry" />
        </mxCell>
        <mxCell id="DMNtIWhjdlfI8IVSeMIg-452" value="" style="edgeStyle=orthogonalEdgeStyle;rounded=0;orthogonalLoop=1;jettySize=auto;html=1;" edge="1" parent="1" source="DMNtIWhjdlfI8IVSeMIg-454" target="DMNtIWhjdlfI8IVSeMIg-460">
          <mxGeometry relative="1" as="geometry" />
        </mxCell>
        <mxCell id="DMNtIWhjdlfI8IVSeMIg-453" value="" style="edgeStyle=orthogonalEdgeStyle;rounded=0;orthogonalLoop=1;jettySize=auto;html=1;" edge="1" parent="1" source="DMNtIWhjdlfI8IVSeMIg-454" target="DMNtIWhjdlfI8IVSeMIg-461">
          <mxGeometry relative="1" as="geometry" />
        </mxCell>
        <mxCell id="DMNtIWhjdlfI8IVSeMIg-454" value="Pharmacist" style="rounded=0;whiteSpace=wrap;html=1;" vertex="1" parent="1">
          <mxGeometry x="970" y="20" width="120" height="60" as="geometry" />
        </mxCell>
        <mxCell id="DMNtIWhjdlfI8IVSeMIg-455" style="edgeStyle=orthogonalEdgeStyle;rounded=0;orthogonalLoop=1;jettySize=auto;html=1;exitX=0.5;exitY=1;exitDx=0;exitDy=0;" edge="1" parent="1" source="DMNtIWhjdlfI8IVSeMIg-454" target="DMNtIWhjdlfI8IVSeMIg-454">
          <mxGeometry relative="1" as="geometry" />
        </mxCell>
        <mxCell id="DMNtIWhjdlfI8IVSeMIg-456" value="Add Pharma Catagory" style="whiteSpace=wrap;html=1;rounded=0;" vertex="1" parent="1">
          <mxGeometry x="830" y="240" width="120" height="60" as="geometry" />
        </mxCell>
        <mxCell id="DMNtIWhjdlfI8IVSeMIg-457" style="edgeStyle=orthogonalEdgeStyle;rounded=0;orthogonalLoop=1;jettySize=auto;html=1;exitX=0.5;exitY=1;exitDx=0;exitDy=0;" edge="1" parent="1" source="DMNtIWhjdlfI8IVSeMIg-454" target="DMNtIWhjdlfI8IVSeMIg-454">
          <mxGeometry relative="1" as="geometry" />
        </mxCell>
        <mxCell id="DMNtIWhjdlfI8IVSeMIg-458" value="View Pharmaceuticals" style="whiteSpace=wrap;html=1;rounded=0;" vertex="1" parent="1">
          <mxGeometry x="900" y="150" width="120" height="60" as="geometry" />
        </mxCell>
        <mxCell id="DMNtIWhjdlfI8IVSeMIg-459" value="Manage Presception" style="whiteSpace=wrap;html=1;rounded=0;" vertex="1" parent="1">
          <mxGeometry x="1110" y="240" width="120" height="60" as="geometry" />
        </mxCell>
        <mxCell id="DMNtIWhjdlfI8IVSeMIg-460" value="Manage Inventory" style="whiteSpace=wrap;html=1;rounded=0;" vertex="1" parent="1">
          <mxGeometry x="970" y="240" width="120" height="60" as="geometry" />
        </mxCell>
        <mxCell id="DMNtIWhjdlfI8IVSeMIg-461" value="Manage Inventory Payrolls" style="whiteSpace=wrap;html=1;rounded=0;" vertex="1" parent="1">
          <mxGeometry x="1040" y="150" width="120" height="60" as="geometry" />
        </mxCell>
        <mxCell id="DMNtIWhjdlfI8IVSeMIg-462" value="" style="edgeStyle=orthogonalEdgeStyle;rounded=0;orthogonalLoop=1;jettySize=auto;html=1;" edge="1" parent="1" source="DMNtIWhjdlfI8IVSeMIg-466" target="DMNtIWhjdlfI8IVSeMIg-467">
          <mxGeometry relative="1" as="geometry" />
        </mxCell>
        <mxCell id="DMNtIWhjdlfI8IVSeMIg-463" value="" style="edgeStyle=orthogonalEdgeStyle;rounded=0;orthogonalLoop=1;jettySize=auto;html=1;" edge="1" parent="1" source="DMNtIWhjdlfI8IVSeMIg-466" target="DMNtIWhjdlfI8IVSeMIg-468">
          <mxGeometry relative="1" as="geometry" />
        </mxCell>
        <mxCell id="DMNtIWhjdlfI8IVSeMIg-464" value="" style="edgeStyle=orthogonalEdgeStyle;rounded=0;orthogonalLoop=1;jettySize=auto;html=1;" edge="1" parent="1" source="DMNtIWhjdlfI8IVSeMIg-466" target="DMNtIWhjdlfI8IVSeMIg-469">
          <mxGeometry relative="1" as="geometry" />
        </mxCell>
        <mxCell id="DMNtIWhjdlfI8IVSeMIg-465" value="" style="edgeStyle=orthogonalEdgeStyle;rounded=0;orthogonalLoop=1;jettySize=auto;html=1;" edge="1" parent="1" source="DMNtIWhjdlfI8IVSeMIg-466" target="DMNtIWhjdlfI8IVSeMIg-470">
          <mxGeometry relative="1" as="geometry" />
        </mxCell>
        <mxCell id="DMNtIWhjdlfI8IVSeMIg-466" value="Laboratory" style="rounded=0;whiteSpace=wrap;html=1;" vertex="1" parent="1">
          <mxGeometry x="1435" width="120" height="60" as="geometry" />
        </mxCell>
        <mxCell id="DMNtIWhjdlfI8IVSeMIg-467" value="Lab Test" style="whiteSpace=wrap;html=1;rounded=0;" vertex="1" parent="1">
          <mxGeometry x="1275" y="130" width="120" height="60" as="geometry" />
        </mxCell>
        <mxCell id="DMNtIWhjdlfI8IVSeMIg-468" value="Generate Lab Result" style="whiteSpace=wrap;html=1;rounded=0;" vertex="1" parent="1">
          <mxGeometry x="1365" y="210" width="120" height="60" as="geometry" />
        </mxCell>
        <mxCell id="DMNtIWhjdlfI8IVSeMIg-469" value="Patient/Employe Vitals" style="whiteSpace=wrap;html=1;rounded=0;" vertex="1" parent="1">
          <mxGeometry x="1515" y="210" width="120" height="60" as="geometry" />
        </mxCell>
        <mxCell id="DMNtIWhjdlfI8IVSeMIg-470" value="Lab Report" style="whiteSpace=wrap;html=1;rounded=0;" vertex="1" parent="1">
          <mxGeometry x="1605" y="130" width="120" height="60" as="geometry" />
        </mxCell>
        <mxCell id="DMNtIWhjdlfI8IVSeMIg-471" value="" style="edgeStyle=orthogonalEdgeStyle;rounded=0;orthogonalLoop=1;jettySize=auto;html=1;" edge="1" parent="1" source="DMNtIWhjdlfI8IVSeMIg-478" target="DMNtIWhjdlfI8IVSeMIg-479">
          <mxGeometry relative="1" as="geometry" />
        </mxCell>
        <mxCell id="DMNtIWhjdlfI8IVSeMIg-472" value="" style="edgeStyle=orthogonalEdgeStyle;rounded=0;orthogonalLoop=1;jettySize=auto;html=1;" edge="1" parent="1" source="DMNtIWhjdlfI8IVSeMIg-478" target="DMNtIWhjdlfI8IVSeMIg-489">
          <mxGeometry relative="1" as="geometry" />
        </mxCell>
        <mxCell id="DMNtIWhjdlfI8IVSeMIg-473" value="" style="edgeStyle=orthogonalEdgeStyle;rounded=0;orthogonalLoop=1;jettySize=auto;html=1;" edge="1" parent="1" source="DMNtIWhjdlfI8IVSeMIg-478" target="DMNtIWhjdlfI8IVSeMIg-481">
          <mxGeometry relative="1" as="geometry" />
        </mxCell>
        <mxCell id="DMNtIWhjdlfI8IVSeMIg-474" value="" style="edgeStyle=orthogonalEdgeStyle;rounded=0;orthogonalLoop=1;jettySize=auto;html=1;" edge="1" parent="1" source="DMNtIWhjdlfI8IVSeMIg-478" target="DMNtIWhjdlfI8IVSeMIg-484">
          <mxGeometry relative="1" as="geometry" />
        </mxCell>
        <mxCell id="DMNtIWhjdlfI8IVSeMIg-475" value="" style="edgeStyle=orthogonalEdgeStyle;rounded=0;orthogonalLoop=1;jettySize=auto;html=1;" edge="1" parent="1" source="DMNtIWhjdlfI8IVSeMIg-478" target="DMNtIWhjdlfI8IVSeMIg-485">
          <mxGeometry relative="1" as="geometry" />
        </mxCell>
        <mxCell id="DMNtIWhjdlfI8IVSeMIg-476" value="" style="edgeStyle=orthogonalEdgeStyle;rounded=0;orthogonalLoop=1;jettySize=auto;html=1;" edge="1" parent="1" source="DMNtIWhjdlfI8IVSeMIg-478" target="DMNtIWhjdlfI8IVSeMIg-486">
          <mxGeometry relative="1" as="geometry" />
        </mxCell>
        <mxCell id="DMNtIWhjdlfI8IVSeMIg-477" value="" style="edgeStyle=orthogonalEdgeStyle;rounded=0;orthogonalLoop=1;jettySize=auto;html=1;" edge="1" parent="1" source="DMNtIWhjdlfI8IVSeMIg-478" target="DMNtIWhjdlfI8IVSeMIg-487">
          <mxGeometry relative="1" as="geometry" />
        </mxCell>
        <mxCell id="DMNtIWhjdlfI8IVSeMIg-478" value="Doctor Dashboardboard" style="rounded=0;whiteSpace=wrap;html=1;" vertex="1" parent="1">
          <mxGeometry x="1690" y="360" width="120" height="60" as="geometry" />
        </mxCell>
        <mxCell id="DMNtIWhjdlfI8IVSeMIg-479" value="Patient Registration" style="rounded=0;whiteSpace=wrap;html=1;" vertex="1" parent="1">
          <mxGeometry x="1340" y="560" width="120" height="60" as="geometry" />
        </mxCell>
        <mxCell id="DMNtIWhjdlfI8IVSeMIg-492" style="edgeStyle=orthogonalEdgeStyle;rounded=0;orthogonalLoop=1;jettySize=auto;html=1;entryX=0.5;entryY=1;entryDx=0;entryDy=0;" edge="1" parent="1" source="DMNtIWhjdlfI8IVSeMIg-480" target="DMNtIWhjdlfI8IVSeMIg-478">
          <mxGeometry relative="1" as="geometry" />
        </mxCell>
        <mxCell id="DMNtIWhjdlfI8IVSeMIg-480" value="Patient Discharge" style="whiteSpace=wrap;html=1;rounded=0;" vertex="1" parent="1">
          <mxGeometry x="1570" y="660" width="120" height="60" as="geometry" />
        </mxCell>
        <mxCell id="DMNtIWhjdlfI8IVSeMIg-481" value="Prescription" style="whiteSpace=wrap;html=1;rounded=0;" vertex="1" parent="1">
          <mxGeometry x="1840" y="560" width="120" height="60" as="geometry" />
        </mxCell>
        <mxCell id="DMNtIWhjdlfI8IVSeMIg-482" style="edgeStyle=orthogonalEdgeStyle;rounded=0;orthogonalLoop=1;jettySize=auto;html=1;exitX=0.5;exitY=1;exitDx=0;exitDy=0;" edge="1" parent="1" source="DMNtIWhjdlfI8IVSeMIg-480" target="DMNtIWhjdlfI8IVSeMIg-480">
          <mxGeometry relative="1" as="geometry" />
        </mxCell>
        <mxCell id="DMNtIWhjdlfI8IVSeMIg-484" value="View Appointment" style="whiteSpace=wrap;html=1;rounded=0;" vertex="1" parent="1">
          <mxGeometry x="1420" y="660" width="120" height="60" as="geometry" />
        </mxCell>
        <mxCell id="DMNtIWhjdlfI8IVSeMIg-485" value="Update Profile" style="whiteSpace=wrap;html=1;rounded=0;" vertex="1" parent="1">
          <mxGeometry x="2005" y="560" width="120" height="60" as="geometry" />
        </mxCell>
        <mxCell id="DMNtIWhjdlfI8IVSeMIg-486" value="View payment Receipt" style="whiteSpace=wrap;html=1;rounded=0;" vertex="1" parent="1">
          <mxGeometry x="1690" y="560" width="120" height="60" as="geometry" />
        </mxCell>
        <mxCell id="DMNtIWhjdlfI8IVSeMIg-487" value="Update Profile" style="whiteSpace=wrap;html=1;rounded=0;" vertex="1" parent="1">
          <mxGeometry x="1760" y="660" width="120" height="60" as="geometry" />
        </mxCell>
        <mxCell id="DMNtIWhjdlfI8IVSeMIg-488" value="" style="edgeStyle=orthogonalEdgeStyle;rounded=0;orthogonalLoop=1;jettySize=auto;html=1;" edge="1" parent="1" source="DMNtIWhjdlfI8IVSeMIg-478" target="DMNtIWhjdlfI8IVSeMIg-489">
          <mxGeometry relative="1" as="geometry">
            <Array as="points" />
            <mxPoint x="1750" y="460" as="sourcePoint" />
            <mxPoint x="1640" y="650" as="targetPoint" />
          </mxGeometry>
        </mxCell>
        <mxCell id="DMNtIWhjdlfI8IVSeMIg-489" value="View Test Results" style="whiteSpace=wrap;html=1;rounded=0;" vertex="1" parent="1">
          <mxGeometry x="1500" y="560" width="120" height="60" as="geometry" />
        </mxCell>
        <mxCell id="DMNtIWhjdlfI8IVSeMIg-493" value="" style="edgeStyle=orthogonalEdgeStyle;rounded=0;orthogonalLoop=1;jettySize=auto;html=1;" edge="1" parent="1" source="DMNtIWhjdlfI8IVSeMIg-362" target="DMNtIWhjdlfI8IVSeMIg-94">
          <mxGeometry relative="1" as="geometry">
            <mxPoint x="735" y="410" as="targetPoint" />
            <mxPoint x="735" y="490" as="sourcePoint" />
          </mxGeometry>
        </mxCell>
        <mxCell id="DMNtIWhjdlfI8IVSeMIg-94" value="Admin Login" style="rhombus;whiteSpace=wrap;html=1;" vertex="1" parent="1">
          <mxGeometry x="695" y="340" width="80" height="80" as="geometry" />
        </mxCell>
      </root>
    </mxGraphModel>
  </diagram>
</mxfile>
